<svg width="762" height="294" viewBox="0 0 762 294" fill="none" xmlns="http://www.w3.org/2000/svg">
<g clip-path="url(#clip0)">
<path d="M359 38.5808L349.909 47.3333L242.412 150.822L208.883 183.102L104.078 284H106.26L209.974 184.152L243.503 151.873L351 48.3136L359 40.6114V38.5808Z" fill="#48403B"/>
<path d="M359 174.349L349.909 183.102L316.38 215.381L245.176 284H247.358L351 184.152L359 176.45V174.349Z" fill="#48403B"/>
<path d="M358.927 262.924L359 262.854V260.753L334.926 284H337.035L358.927 262.924Z" fill="#48403B"/>
<path d="M359 273.077L347.726 284H349.908L359 275.177V273.077Z" fill="#48403B"/>
<path d="M352.454 256.762L359 250.461V248.36L351.363 255.712L322.052 284H324.234L352.454 256.762Z" fill="#48403B"/>
<path d="M260.159 0H257.977L208.883 47.3333L101.387 150.822L67.7852 183.102L0 248.36V250.461L68.8762 184.152L102.405 151.873L176.373 80.6627L209.974 48.3136L243.503 16.0345L260.159 0Z" fill="#48403B"/>
<path d="M312.525 282.88L346.054 250.601L359 238.067V236.036L311.434 281.829L309.179 284H311.361L312.525 282.88Z" fill="#48403B"/>
<path d="M217.829 262.924L325.325 159.435L358.927 127.156L359 127.016V124.915L357.836 126.105L324.235 158.385L290.706 190.664L216.738 261.874L193.828 284H196.01L217.829 262.924Z" fill="#48403B"/>
<path d="M298.197 197.946L331.726 165.597L359 139.339V137.309L330.708 164.546L223.139 268.105L206.629 284H208.811L298.197 197.946Z" fill="#48403B"/>
<path d="M230.63 275.318L304.597 204.107L338.199 171.758L359 151.733V149.632L337.108 170.778L303.579 203.057L229.611 274.267L219.502 284H221.684L230.63 275.318Z" fill="#48403B"/>
<path d="M237.103 281.479L311.07 210.269L344.599 177.99L359 164.056V162.026L343.508 176.94L309.98 209.219L232.303 284H234.485L237.103 281.479Z" fill="#48403B"/>
<path d="M323.871 222.663L357.472 190.314L359 188.843V186.743L356.381 189.263L322.78 221.612L258.049 284H260.158L323.871 222.663Z" fill="#48403B"/>
<path d="M336.744 234.986L359 213.56V211.46L335.653 233.936L283.723 284H285.833L336.744 234.986Z" fill="#48403B"/>
<path d="M343.145 241.148L359 225.884V223.643L305.034 275.668L296.379 284H298.706L343.145 241.148Z" fill="#48403B"/>
<path d="M285.396 185.552L318.925 153.273L352.454 120.924L359 114.622V112.592L351.363 119.874L317.834 152.223L210.338 255.712L180.954 284H183.136L211.429 256.762L285.396 185.552Z" fill="#48403B"/>
<path d="M273.032 284L330.271 228.824L359 201.167V199.066L270.85 284H273.032Z" fill="#48403B"/>
<path d="M195.646 234.986L229.175 202.707L262.777 170.358L336.744 99.1479L359 77.7219V75.6213L261.686 169.378L228.157 201.657L194.555 233.936L142.625 284H144.807L195.646 234.986Z" fill="#48403B"/>
<path d="M116.951 0L101.387 14.9842L67.7852 47.3333L0 112.592V114.622L68.8762 48.3136L119.061 0H116.951Z" fill="#48403B"/>
<path d="M80.6586 59.6568L47.0569 91.9359L0 137.309V139.339L48.1479 92.9862L81.7496 60.7071L115.279 28.358L144.735 0H142.625L114.188 27.3777L80.6586 59.6568Z" fill="#48403B"/>
<path d="M0 63.1578V65.1884L43.2022 23.5966L67.7125 0H65.5306L42.1112 22.5463L0 63.1578Z" fill="#48403B"/>
<path d="M88.5135 2.66075L54.9846 34.9398L0 87.8747V89.9053L56.0028 35.9901L89.6045 3.64102L93.3865 0H91.2773L88.5135 2.66075Z" fill="#48403B"/>
<path d="M107.787 21.146L74.1856 53.4951L40.6566 85.7741L0 124.915V127.016L41.7476 86.8244L75.2765 54.5454L108.878 22.1962L131.934 0H129.752L107.787 21.146Z" fill="#48403B"/>
<path d="M168.154 0L163.936 4.06114L56.4392 107.55L22.8375 139.829L0 161.886V164.056L61.0212 105.38L94.5502 73.0306L128.079 40.7515L170.409 0H168.154Z" fill="#48403B"/>
<path d="M87.0589 65.8185L0 149.632V151.733L88.1499 66.8688L157.608 0H155.426L87.0589 65.8185Z" fill="#48403B"/>
<path d="M171.427 282.88L204.956 250.601L312.525 147.041L359 102.299V100.198L344.963 113.712L311.434 146.061L277.832 178.34L170.336 281.829L168.154 284H170.263L171.427 282.88Z" fill="#48403B"/>
<path d="M144.298 185.552L177.827 153.273L285.396 49.714L318.925 17.4349L337.035 0H334.853L317.834 16.3846L210.338 119.874L176.736 152.223L69.2398 255.712L39.9292 284H42.0384L144.298 185.552Z" fill="#48403B"/>
<path d="M76.7311 262.924L184.3 159.435L217.829 127.156L325.325 23.5966L349.836 0H347.727L324.235 22.5463L216.738 126.106L183.209 158.385L149.608 190.664L52.7299 284H54.9119L76.7311 262.924Z" fill="#48403B"/>
<path d="M157.099 197.946L190.701 165.597L298.197 62.1075L331.726 29.8284L359 3.57099V1.4704L330.708 28.7781L297.106 61.0572L223.139 132.267L189.61 164.546L156.081 196.895L82.1134 268.105L65.6035 284H67.7126L157.099 197.946Z" fill="#48403B"/>
<path d="M80.5857 284L89.6044 275.318L197.101 171.758L230.63 139.479L338.199 35.9901L359 15.8945V13.8639L337.108 34.9398L303.579 67.2189L196.01 170.778L88.5134 274.267L78.4038 284H80.5857Z" fill="#48403B"/>
<path d="M169.972 210.269L203.501 177.99L311.07 74.431L344.599 42.1519L359 28.288V26.1874L343.508 41.1016L309.979 73.4507L202.483 176.94L168.881 209.219L91.2773 284H93.3865L169.972 210.269Z" fill="#48403B"/>
<path d="M182.845 222.663L216.374 190.314L323.871 86.8245L357.472 54.5454L359 53.0049V50.9043L356.381 53.4951L322.78 85.7742L215.283 189.263L181.754 221.612L116.951 284H119.133L182.845 222.663Z" fill="#48403B"/>
<path d="M202.047 241.148L235.648 208.869L343.145 105.38L359 90.0453V87.8747L338.562 107.55L305.034 139.829L271.432 172.178L197.464 243.389L163.936 275.668L155.281 284H157.608L202.047 241.148Z" fill="#48403B"/>
<path d="M131.934 284L222.775 196.475L330.271 92.9862L359 65.3284V63.2978L255.285 163.146L221.684 195.495L129.752 284H131.934Z" fill="#48403B"/>
<path d="M88.15 202.707L121.679 170.358L229.175 66.8688L298.633 0H296.524L261.686 33.5394L228.157 65.8185L194.555 98.1676L120.588 169.378L87.059 201.657L53.53 233.936L1.52742 284H3.70935L88.15 202.707Z" fill="#48403B"/>
<path d="M39.8566 0L29.3106 10.2229L0 38.4408V40.4714L30.3288 11.2732L42.0385 0H39.8566Z" fill="#48403B"/>
<path d="M35.7109 16.3846L2.1092 48.7337L0 50.7643V52.8649L3.20016 49.714L36.8019 17.4349L54.9119 0H52.7299L35.7109 16.3846Z" fill="#48403B"/>
<path d="M0 3.571L3.70928 0H1.52735L0 1.47041V3.571Z" fill="#48403B"/>
<path d="M0 15.8945L16.5099 0H14.4007L0 13.8639V15.8945Z" fill="#48403B"/>
<path d="M27.0559 0L22.8375 4.06114L0 26.0473V28.288L29.3833 0H27.0559Z" fill="#48403B"/>
<path d="M3.20016 185.552L36.8019 153.273L144.298 49.714L177.827 17.4349L195.937 0H193.828L176.736 16.3846L69.2398 119.874L35.7109 152.223L0 186.603V188.633L3.20016 185.552Z" fill="#48403B"/>
<path d="M63.9305 114.762L171.427 11.2732L183.136 0H180.955L170.336 10.2229L136.807 42.502L62.8395 113.712L29.3106 146.061L0 174.209V176.31L30.3288 147.041L63.9305 114.762Z" fill="#48403B"/>
<path d="M27.8559 73.4507L0 100.198V102.299L28.8742 74.431L62.4759 42.1519L106.26 0H104.078L61.3849 41.1016L27.8559 73.4507Z" fill="#48403B"/>
<path d="M0 77.5818L16.0735 62.1075L49.6025 29.8284L80.5859 0H78.404L48.5115 28.7781L14.9826 61.0572L0 75.4812V77.5818Z" fill="#48403B"/>
<path d="M30.3289 282.88L63.9306 250.601L171.427 147.041L204.956 114.762L312.525 11.2732L324.162 0H322.053L311.434 10.2229L277.832 42.502L170.336 146.061L136.807 178.34L29.3107 281.829L27.056 284H29.238L30.3289 282.88Z" fill="#48403B"/>
<path d="M16.0735 197.946L49.6025 165.597L157.099 62.1075L190.701 29.8284L221.611 0H219.502L189.61 28.7781L156.081 61.0572L48.5115 164.546L14.9826 196.895L0 211.32V213.35L16.0735 197.946Z" fill="#48403B"/>
<path d="M41.7476 222.663L75.2765 190.314L182.846 86.8244L216.375 54.5454L249.903 22.1962L272.959 0H270.85L248.813 21.146L215.284 53.4951L181.755 85.7741L107.787 156.984L74.1855 189.263L40.6566 221.612L0 260.753V262.854L41.7476 222.663Z" fill="#48403B"/>
<path d="M61.0213 241.148L94.5503 208.869L202.047 105.38L235.648 73.0306L269.177 40.7515L306.197 5.18146L311.507 0H309.179L305.034 4.06114L197.465 107.55L163.936 139.829L56.4393 243.389L22.8376 275.668L14.2553 284H16.5827L61.0213 241.148Z" fill="#48403B"/>
<path d="M0 201.027L43.2022 159.435L76.7311 127.156L150.699 55.9458L184.3 23.5966L208.811 0H206.629L183.209 22.5463L149.608 54.8955L75.6402 126.106L42.1112 158.385L0 198.926V201.027Z" fill="#48403B"/>
<path d="M56.0028 171.758L89.6045 139.479L197.101 35.9901L230.63 3.64102L234.485 0H232.303L229.612 2.66075L196.01 34.9398L162.481 67.2189L88.5135 138.429L54.9846 170.778L0 223.643V225.744L22.4739 204.107L56.0028 171.758Z" fill="#48403B"/>
<path d="M62.4759 177.99L169.972 74.431L203.501 42.1519L247.285 0H245.176L236.012 8.82248L202.483 41.1016L168.881 73.4507L61.3849 176.94L27.8559 209.219L0 236.036V238.067L28.8742 210.269L62.4759 177.99Z" fill="#48403B"/>
<path d="M0 273.077V275.177L48.1479 228.824L81.7496 196.475L115.279 164.196L189.246 92.9862L222.775 60.7071L256.377 28.358L285.833 0H283.651L221.684 59.6568L114.188 163.146L80.6586 195.495L0 273.077Z" fill="#48403B"/>
<path d="M718 38.5808L708.909 47.3333L601.412 150.822L567.883 183.102L463.078 284H465.26L568.974 184.152L602.503 151.873L710 48.3136L718 40.6114V38.5808Z" fill="#48403B"/>
<path d="M718 174.349L708.909 183.102L675.38 215.381L604.176 284H606.358L710 184.152L718 176.45V174.349Z" fill="#48403B"/>
<path d="M717.927 262.924L718 262.854V260.753L693.926 284H696.035L717.927 262.924Z" fill="#48403B"/>
<path d="M718 273.077L706.726 284H708.908L718 275.177V273.077Z" fill="#48403B"/>
<path d="M711.454 256.762L718 250.461V248.36L710.363 255.712L681.052 284H683.234L711.454 256.762Z" fill="#48403B"/>
<path d="M619.159 0H616.977L567.883 47.3333L460.387 150.822L426.785 183.102L359 248.36V250.461L427.876 184.152L461.405 151.873L535.373 80.6627L568.974 48.3136L602.503 16.0345L619.159 0Z" fill="#48403B"/>
<path d="M671.525 282.88L705.054 250.601L718 238.067V236.036L670.434 281.829L668.179 284H670.361L671.525 282.88Z" fill="#48403B"/>
<path d="M576.829 262.924L684.325 159.435L717.927 127.156L718 127.016V124.915L716.836 126.105L683.235 158.385L649.706 190.664L575.738 261.874L552.828 284H555.01L576.829 262.924Z" fill="#48403B"/>
<path d="M657.197 197.946L690.726 165.597L718 139.339V137.309L689.708 164.546L582.139 268.105L565.629 284H567.811L657.197 197.946Z" fill="#48403B"/>
<path d="M589.63 275.318L663.597 204.107L697.199 171.758L718 151.733V149.632L696.108 170.778L662.579 203.057L588.611 274.267L578.502 284H580.684L589.63 275.318Z" fill="#48403B"/>
<path d="M596.103 281.479L670.07 210.269L703.599 177.99L718 164.056V162.026L702.508 176.94L668.979 209.219L591.303 284H593.485L596.103 281.479Z" fill="#48403B"/>
<path d="M682.871 222.663L716.472 190.314L718 188.843V186.743L715.381 189.263L681.78 221.612L617.049 284H619.158L682.871 222.663Z" fill="#48403B"/>
<path d="M695.744 234.986L718 213.56V211.46L694.653 233.936L642.723 284H644.833L695.744 234.986Z" fill="#48403B"/>
<path d="M702.145 241.148L718 225.884V223.643L664.034 275.668L655.379 284H657.706L702.145 241.148Z" fill="#48403B"/>
<path d="M644.396 185.552L677.925 153.273L711.454 120.924L718 114.622V112.592L710.363 119.874L676.834 152.223L569.338 255.712L539.954 284H542.136L570.429 256.762L644.396 185.552Z" fill="#48403B"/>
<path d="M632.032 284L689.271 228.824L718 201.167V199.066L629.85 284H632.032Z" fill="#48403B"/>
<path d="M554.646 234.986L588.175 202.707L621.777 170.358L695.744 99.1479L718 77.7219V75.6213L620.686 169.378L587.157 201.657L553.555 233.936L501.625 284H503.807L554.646 234.986Z" fill="#48403B"/>
<path d="M475.951 0L460.387 14.9842L426.785 47.3333L359 112.592V114.622L427.876 48.3136L478.061 0H475.951Z" fill="#48403B"/>
<path d="M439.659 59.6568L406.057 91.9359L359 137.309V139.339L407.148 92.9862L440.75 60.7071L474.279 28.358L503.735 0H501.625L473.188 27.3777L439.659 59.6568Z" fill="#48403B"/>
<path d="M359 63.1578V65.1884L402.202 23.5966L426.712 0H424.531L401.111 22.5463L359 63.1578Z" fill="#48403B"/>
<path d="M447.514 2.66075L413.985 34.9398L359 87.8747V89.9053L415.003 35.9901L448.605 3.64102L452.387 0H450.277L447.514 2.66075Z" fill="#48403B"/>
<path d="M466.787 21.146L433.186 53.4951L399.657 85.7741L359 124.915V127.016L400.748 86.8244L434.277 54.5454L467.878 22.1962L490.934 0H488.752L466.787 21.146Z" fill="#48403B"/>
<path d="M527.154 0L522.936 4.06114L415.439 107.55L381.838 139.829L359 161.886V164.056L420.021 105.38L453.55 73.0306L487.079 40.7515L529.409 0H527.154Z" fill="#48403B"/>
<path d="M446.059 65.8185L359 149.632V151.733L447.15 66.8688L516.608 0H514.426L446.059 65.8185Z" fill="#48403B"/>
<path d="M530.427 282.88L563.956 250.601L671.525 147.041L718 102.299V100.198L703.963 113.712L670.434 146.061L636.832 178.34L529.336 281.829L527.154 284H529.263L530.427 282.88Z" fill="#48403B"/>
<path d="M503.298 185.552L536.827 153.273L644.396 49.714L677.925 17.4349L696.035 0H693.853L676.834 16.3846L569.338 119.874L535.736 152.223L428.24 255.712L398.929 284H401.038L503.298 185.552Z" fill="#48403B"/>
<path d="M435.731 262.924L543.3 159.435L576.829 127.156L684.325 23.5966L708.836 0H706.727L683.234 22.5463L575.738 126.106L542.209 158.385L508.608 190.664L411.73 284H413.912L435.731 262.924Z" fill="#48403B"/>
<path d="M516.099 197.946L549.701 165.597L657.197 62.1075L690.726 29.8284L718 3.57099V1.4704L689.708 28.7781L656.106 61.0572L582.139 132.267L548.61 164.546L515.081 196.895L441.113 268.105L424.603 284H426.713L516.099 197.946Z" fill="#48403B"/>
<path d="M439.586 284L448.604 275.318L556.101 171.758L589.63 139.479L697.199 35.9901L718 15.8945V13.8639L696.108 34.9398L662.579 67.2189L555.01 170.778L447.513 274.267L437.404 284H439.586Z" fill="#48403B"/>
<path d="M528.972 210.269L562.501 177.99L670.07 74.431L703.599 42.1519L718 28.288V26.1874L702.508 41.1016L668.979 73.4507L561.483 176.94L527.881 209.219L450.277 284H452.387L528.972 210.269Z" fill="#48403B"/>
<path d="M541.845 222.663L575.374 190.314L682.871 86.8245L716.472 54.5454L718 53.0049V50.9043L715.381 53.4951L681.78 85.7742L574.283 189.263L540.754 221.612L475.951 284H478.133L541.845 222.663Z" fill="#48403B"/>
<path d="M561.047 241.148L594.648 208.869L702.145 105.38L718 90.0453V87.8747L697.562 107.55L664.034 139.829L630.432 172.178L556.464 243.389L522.936 275.668L514.281 284H516.608L561.047 241.148Z" fill="#48403B"/>
<path d="M490.934 284L581.775 196.475L689.271 92.9862L718 65.3284V63.2978L614.285 163.146L580.684 195.495L488.752 284H490.934Z" fill="#48403B"/>
<path d="M447.15 202.707L480.679 170.358L588.175 66.8688L657.633 0H655.524L620.686 33.5394L587.157 65.8185L553.555 98.1676L479.588 169.378L446.059 201.657L412.53 233.936L360.527 284H362.709L447.15 202.707Z" fill="#48403B"/>
<path d="M398.857 0L388.311 10.2229L359 38.4408V40.4714L389.329 11.2732L401.038 0H398.857Z" fill="#48403B"/>
<path d="M394.711 16.3846L361.109 48.7337L359 50.7643V52.8649L362.2 49.714L395.802 17.4349L413.912 0H411.73L394.711 16.3846Z" fill="#48403B"/>
<path d="M359 3.571L362.709 0H360.527L359 1.47041V3.571Z" fill="#48403B"/>
<path d="M359 15.8945L375.51 0H373.401L359 13.8639V15.8945Z" fill="#48403B"/>
<path d="M386.056 0L381.838 4.06114L359 26.0473V28.288L388.383 0H386.056Z" fill="#48403B"/>
<path d="M362.2 185.552L395.802 153.273L503.298 49.714L536.827 17.4349L554.937 0H552.828L535.736 16.3846L428.24 119.874L394.711 152.223L359 186.603V188.633L362.2 185.552Z" fill="#48403B"/>
<path d="M422.93 114.762L530.427 11.2732L542.136 0H539.955L529.336 10.2229L495.807 42.502L421.84 113.712L388.311 146.061L359 174.209V176.31L389.329 147.041L422.93 114.762Z" fill="#48403B"/>
<path d="M386.856 73.4507L359 100.198V102.299L387.874 74.431L421.476 42.1519L465.26 0H463.078L420.385 41.1016L386.856 73.4507Z" fill="#48403B"/>
<path d="M359 77.5818L375.074 62.1075L408.602 29.8284L439.586 0H437.404L407.512 28.7781L373.983 61.0572L359 75.4812V77.5818Z" fill="#48403B"/>
<path d="M389.329 282.88L422.931 250.601L530.427 147.041L563.956 114.762L671.525 11.2732L683.162 0H681.053L670.434 10.2229L636.832 42.502L529.336 146.061L495.807 178.34L388.311 281.829L386.056 284H388.238L389.329 282.88Z" fill="#48403B"/>
<path d="M375.074 197.946L408.602 165.597L516.099 62.1075L549.701 29.8284L580.611 0H578.502L548.61 28.7781L515.081 61.0572L407.512 164.546L373.983 196.895L359 211.32V213.35L375.074 197.946Z" fill="#48403B"/>
<path d="M400.748 222.663L434.277 190.314L541.846 86.8244L575.375 54.5454L608.903 22.1962L631.959 0H629.85L607.813 21.146L574.284 53.4951L540.755 85.7741L466.787 156.984L433.186 189.263L399.657 221.612L359 260.753V262.854L400.748 222.663Z" fill="#48403B"/>
<path d="M420.021 241.148L453.55 208.869L561.047 105.38L594.648 73.0306L628.177 40.7515L665.197 5.18146L670.507 0H668.179L664.034 4.06114L556.465 107.55L522.936 139.829L415.439 243.389L381.838 275.668L373.255 284H375.583L420.021 241.148Z" fill="#48403B"/>
<path d="M359 201.027L402.202 159.435L435.731 127.156L509.699 55.9458L543.3 23.5966L567.811 0H565.629L542.209 22.5463L508.608 54.8955L434.64 126.106L401.111 158.385L359 198.926V201.027Z" fill="#48403B"/>
<path d="M415.003 171.758L448.605 139.479L556.101 35.9901L589.63 3.64102L593.485 0H591.303L588.612 2.66075L555.01 34.9398L521.481 67.2189L447.514 138.429L413.985 170.778L359 223.643V225.744L381.474 204.107L415.003 171.758Z" fill="#48403B"/>
<path d="M421.476 177.99L528.972 74.431L562.501 42.1519L606.285 0H604.176L595.012 8.82248L561.483 41.1016L527.881 73.4507L420.385 176.94L386.856 209.219L359 236.036V238.067L387.874 210.269L421.476 177.99Z" fill="#48403B"/>
<path d="M359 273.077V275.177L407.148 228.824L440.75 196.475L474.279 164.196L548.246 92.9862L581.775 60.7071L615.377 28.358L644.833 0H642.651L580.684 59.6568L473.188 163.146L439.659 195.495L359 273.077Z" fill="#48403B"/>
<path d="M978.159 0H975.977L926.883 47.3333L819.387 150.822L785.785 183.102L718 248.36V250.461L786.876 184.152L820.405 151.873L894.373 80.6627L927.974 48.3136L961.503 16.0345L978.159 0Z" fill="#48403B"/>
<path d="M834.951 0L819.387 14.9842L785.785 47.3333L718 112.592V114.622L786.876 48.3136L837.061 0H834.951Z" fill="#48403B"/>
<path d="M798.659 59.6568L765.057 91.9359L718 137.309V139.339L766.148 92.9862L799.75 60.7071L833.279 28.358L862.735 0H860.625L832.188 27.3777L798.659 59.6568Z" fill="#48403B"/>
<path d="M718 63.1578V65.1884L761.202 23.5966L785.712 0H783.531L760.111 22.5463L718 63.1578Z" fill="#48403B"/>
<path d="M806.514 2.66075L772.985 34.9398L718 87.8747V89.9053L774.003 35.9901L807.605 3.64102L811.387 0H809.277L806.514 2.66075Z" fill="#48403B"/>
<path d="M825.787 21.146L792.186 53.4951L758.657 85.7741L718 124.915V127.016L759.748 86.8244L793.277 54.5454L826.878 22.1962L849.934 0H847.752L825.787 21.146Z" fill="#48403B"/>
<path d="M886.154 0L881.936 4.06114L774.439 107.55L740.838 139.829L718 161.886V164.056L779.021 105.38L812.55 73.0306L846.079 40.7515L888.409 0H886.154Z" fill="#48403B"/>
<path d="M805.059 65.8185L718 149.632V151.733L806.15 66.8688L875.608 0H873.426L805.059 65.8185Z" fill="#48403B"/>
<path d="M862.298 185.552L895.827 153.273L1003.4 49.714L1036.93 17.4349L1055.04 0H1052.85L1035.83 16.3846L928.338 119.874L894.736 152.223L787.24 255.712L757.929 284H760.038L862.298 185.552Z" fill="#48403B"/>
<path d="M806.15 202.707L839.679 170.358L947.175 66.8688L1016.63 0H1014.52L979.686 33.5394L946.157 65.8185L912.555 98.1676L838.588 169.378L805.059 201.657L771.53 233.936L719.527 284H721.709L806.15 202.707Z" fill="#48403B"/>
<path d="M757.857 0L747.311 10.2229L718 38.4408V40.4714L748.329 11.2732L760.038 0H757.857Z" fill="#48403B"/>
<path d="M753.711 16.3846L720.109 48.7337L718 50.7643V52.8649L721.2 49.714L754.802 17.4349L772.912 0H770.73L753.711 16.3846Z" fill="#48403B"/>
<path d="M718 3.571L721.709 0H719.527L718 1.47041V3.571Z" fill="#48403B"/>
<path d="M718 15.8945L734.51 0H732.401L718 13.8639V15.8945Z" fill="#48403B"/>
<path d="M745.056 0L740.838 4.06114L718 26.0473V28.288L747.383 0H745.056Z" fill="#48403B"/>
<path d="M721.2 185.552L754.802 153.273L862.298 49.714L895.827 17.4349L913.937 0H911.828L894.736 16.3846L787.24 119.874L753.711 152.223L718 186.603V188.633L721.2 185.552Z" fill="#48403B"/>
<path d="M781.93 114.762L889.427 11.2732L901.136 0H898.955L888.336 10.2229L854.807 42.502L780.84 113.712L747.311 146.061L718 174.209V176.31L748.329 147.041L781.93 114.762Z" fill="#48403B"/>
<path d="M745.856 73.4507L718 100.198V102.299L746.874 74.431L780.476 42.1519L824.26 0H822.078L779.385 41.1016L745.856 73.4507Z" fill="#48403B"/>
<path d="M718 77.5818L734.074 62.1075L767.602 29.8284L798.586 0H796.404L766.512 28.7781L732.983 61.0572L718 75.4812V77.5818Z" fill="#48403B"/>
<path d="M748.329 282.88L781.931 250.601L889.427 147.041L922.956 114.762L1030.52 11.2732L1042.16 0H1040.05L1029.43 10.2229L995.832 42.502L888.336 146.061L854.807 178.34L747.311 281.829L745.056 284H747.238L748.329 282.88Z" fill="#48403B"/>
<path d="M734.074 197.946L767.602 165.597L875.099 62.1075L908.701 29.8284L939.611 0H937.502L907.61 28.7781L874.081 61.0572L766.512 164.546L732.983 196.895L718 211.32V213.35L734.074 197.946Z" fill="#48403B"/>
<path d="M759.748 222.663L793.277 190.314L900.846 86.8244L934.375 54.5454L967.903 22.1962L990.959 0H988.85L966.813 21.146L933.284 53.4951L899.755 85.7741L825.787 156.984L792.186 189.263L758.657 221.612L718 260.753V262.854L759.748 222.663Z" fill="#48403B"/>
<path d="M779.021 241.148L812.55 208.869L920.047 105.38L953.648 73.0306L987.177 40.7515L1024.2 5.18146L1029.51 0H1027.18L1023.03 4.06114L915.465 107.55L881.936 139.829L774.439 243.389L740.838 275.668L732.255 284H734.583L779.021 241.148Z" fill="#48403B"/>
<path d="M718 201.027L761.202 159.435L794.731 127.156L868.699 55.9458L902.3 23.5966L926.811 0H924.629L901.209 22.5463L867.608 54.8955L793.64 126.106L760.111 158.385L718 198.926V201.027Z" fill="#48403B"/>
<path d="M774.003 171.758L807.605 139.479L915.101 35.9901L948.63 3.64102L952.485 0H950.303L947.612 2.66075L914.01 34.9398L880.481 67.2189L806.514 138.429L772.985 170.778L718 223.643V225.744L740.474 204.107L774.003 171.758Z" fill="#48403B"/>
<path d="M780.476 177.99L887.972 74.431L921.501 42.1519L965.285 0H963.176L954.012 8.82248L920.483 41.1016L886.881 73.4507L779.385 176.94L745.856 209.219L718 236.036V238.067L746.874 210.269L780.476 177.99Z" fill="#48403B"/>
<path d="M718 273.077V275.177L766.148 228.824L799.75 196.475L833.279 164.196L907.246 92.9862L940.775 60.7071L974.377 28.358L1003.83 0H1001.65L939.684 59.6568L832.188 163.146L798.659 195.495L718 273.077Z" fill="#48403B"/>
<path d="M260.159 284H257.977L208.883 331.333L101.387 434.822L67.7852 467.102L0 532.36V534.461L68.8762 468.152L102.405 435.873L176.373 364.663L209.974 332.314L243.503 300.035L260.159 284Z" fill="#48403B"/>
<path d="M116.951 284L101.387 298.984L67.7852 331.333L0 396.592V398.622L68.8762 332.314L119.061 284H116.951Z" fill="#48403B"/>
<path d="M80.6586 343.657L47.0569 375.936L0 421.309V423.339L48.1479 376.986L81.7496 344.707L115.279 312.358L144.735 284H142.625L114.188 311.378L80.6586 343.657Z" fill="#48403B"/>
<path d="M0 347.158V349.188L43.2022 307.597L67.7125 284H65.5306L42.1112 306.546L0 347.158Z" fill="#48403B"/>
<path d="M88.5135 286.661L54.9846 318.94L0 371.875V373.905L56.0028 319.99L89.6045 287.641L93.3865 284H91.2773L88.5135 286.661Z" fill="#48403B"/>
<path d="M107.787 305.146L74.1856 337.495L40.6566 369.774L0 408.915V411.016L41.7476 370.824L75.2765 338.545L108.878 306.196L131.934 284H129.752L107.787 305.146Z" fill="#48403B"/>
<path d="M168.154 284L163.936 288.061L56.4392 391.55L22.8375 423.829L0 445.886V448.056L61.0212 389.38L94.5502 357.031L128.079 324.751L170.409 284H168.154Z" fill="#48403B"/>
<path d="M87.0589 349.819L0 433.632V435.733L88.1499 350.869L157.608 284H155.426L87.0589 349.819Z" fill="#48403B"/>
<path d="M144.298 469.552L177.827 437.273L285.396 333.714L318.925 301.435L337.035 284H334.853L317.834 300.385L210.338 403.874L176.736 436.223L69.2398 539.712L39.9292 568H42.0384L144.298 469.552Z" fill="#48403B"/>
<path d="M76.7311 546.924L184.3 443.435L217.829 411.156L325.325 307.597L349.836 284H347.727L324.235 306.546L216.738 410.106L183.209 442.385L149.608 474.664L52.7299 568H54.9119L76.7311 546.924Z" fill="#48403B"/>
<path d="M157.099 481.946L190.701 449.597L298.197 346.107L331.726 313.828L359 287.571V285.47L330.708 312.778L297.106 345.057L223.139 416.267L189.61 448.546L156.081 480.895L82.1134 552.105L65.6035 568H67.7126L157.099 481.946Z" fill="#48403B"/>
<path d="M88.15 486.707L121.679 454.358L229.175 350.869L298.633 284H296.524L261.686 317.539L228.157 349.819L194.555 382.168L120.588 453.378L87.059 485.657L53.53 517.936L1.52742 568H3.70935L88.15 486.707Z" fill="#48403B"/>
<path d="M39.8566 284L29.3106 294.223L0 322.441V324.471L30.3288 295.273L42.0385 284H39.8566Z" fill="#48403B"/>
<path d="M35.7109 300.385L2.1092 332.734L0 334.764V336.865L3.20016 333.714L36.8019 301.435L54.9119 284H52.7299L35.7109 300.385Z" fill="#48403B"/>
<path d="M0 287.571L3.70928 284H1.52735L0 285.47V287.571Z" fill="#48403B"/>
<path d="M0 299.894L16.5099 284H14.4007L0 297.864V299.894Z" fill="#48403B"/>
<path d="M27.0559 284L22.8375 288.061L0 310.047V312.288L29.3833 284H27.0559Z" fill="#48403B"/>
<path d="M3.20016 469.552L36.8019 437.273L144.298 333.714L177.827 301.435L195.937 284H193.828L176.736 300.385L69.2398 403.874L35.7109 436.223L0 470.603V472.633L3.20016 469.552Z" fill="#48403B"/>
<path d="M63.9305 398.762L171.427 295.273L183.136 284H180.955L170.336 294.223L136.807 326.502L62.8395 397.712L29.3106 430.061L0 458.209V460.31L30.3288 431.041L63.9305 398.762Z" fill="#48403B"/>
<path d="M27.8559 357.451L0 384.198V386.299L28.8742 358.431L62.4759 326.152L106.26 284H104.078L61.3849 325.102L27.8559 357.451Z" fill="#48403B"/>
<path d="M0 361.582L16.0735 346.107L49.6025 313.828L80.5859 284H78.404L48.5115 312.778L14.9826 345.057L0 359.481V361.582Z" fill="#48403B"/>
<path d="M30.3289 566.88L63.9306 534.601L171.427 431.041L204.956 398.762L312.525 295.273L324.162 284H322.053L311.434 294.223L277.832 326.502L170.336 430.061L136.807 462.34L29.3107 565.829L27.056 568H29.238L30.3289 566.88Z" fill="#48403B"/>
<path d="M16.0735 481.946L49.6025 449.597L157.099 346.107L190.701 313.828L221.611 284H219.502L189.61 312.778L156.081 345.057L48.5115 448.546L14.9826 480.895L0 495.32V497.35L16.0735 481.946Z" fill="#48403B"/>
<path d="M41.7476 506.663L75.2765 474.314L182.846 370.824L216.375 338.545L249.903 306.196L272.959 284H270.85L248.813 305.146L215.284 337.495L181.755 369.774L107.787 440.984L74.1855 473.263L40.6566 505.612L0 544.753V546.854L41.7476 506.663Z" fill="#48403B"/>
<path d="M61.0213 525.148L94.5503 492.869L202.047 389.38L235.648 357.031L269.177 324.751L306.197 289.181L311.507 284H309.179L305.034 288.061L197.465 391.55L163.936 423.829L56.4393 527.389L22.8376 559.668L14.2553 568H16.5827L61.0213 525.148Z" fill="#48403B"/>
<path d="M0 485.027L43.2022 443.435L76.7311 411.156L150.699 339.946L184.3 307.597L208.811 284H206.629L183.209 306.546L149.608 338.895L75.6402 410.106L42.1112 442.385L0 482.926V485.027Z" fill="#48403B"/>
<path d="M56.0028 455.758L89.6045 423.479L197.101 319.99L230.63 287.641L234.485 284H232.303L229.612 286.661L196.01 318.94L162.481 351.219L88.5135 422.429L54.9846 454.778L0 507.643V509.744L22.4739 488.107L56.0028 455.758Z" fill="#48403B"/>
<path d="M62.4759 461.99L169.972 358.431L203.501 326.152L247.285 284H245.176L236.012 292.822L202.483 325.102L168.881 357.451L61.3849 460.94L27.8559 493.219L0 520.036V522.067L28.8742 494.269L62.4759 461.99Z" fill="#48403B"/>
<path d="M0 557.077V559.177L48.1479 512.824L81.7496 480.475L115.279 448.196L189.246 376.986L222.775 344.707L256.377 312.358L285.833 284H283.651L221.684 343.657L114.188 447.146L80.6586 479.495L0 557.077Z" fill="#48403B"/>
<path d="M619.159 284H616.977L567.883 331.333L460.387 434.822L426.785 467.102L359 532.36V534.461L427.876 468.152L461.405 435.873L535.373 364.663L568.974 332.314L602.503 300.035L619.159 284Z" fill="#48403B"/>
<path d="M475.951 284L460.387 298.984L426.785 331.333L359 396.592V398.622L427.876 332.314L478.061 284H475.951Z" fill="#48403B"/>
<path d="M439.659 343.657L406.057 375.936L359 421.309V423.339L407.148 376.986L440.75 344.707L474.279 312.358L503.735 284H501.625L473.188 311.378L439.659 343.657Z" fill="#48403B"/>
<path d="M359 347.158V349.188L402.202 307.597L426.712 284H424.531L401.111 306.546L359 347.158Z" fill="#48403B"/>
<path d="M447.514 286.661L413.985 318.94L359 371.875V373.905L415.003 319.99L448.605 287.641L452.387 284H450.277L447.514 286.661Z" fill="#48403B"/>
<path d="M466.787 305.146L433.186 337.495L399.657 369.774L359 408.915V411.016L400.748 370.824L434.277 338.545L467.878 306.196L490.934 284H488.752L466.787 305.146Z" fill="#48403B"/>
<path d="M527.154 284L522.936 288.061L415.439 391.55L381.838 423.829L359 445.886V448.056L420.021 389.38L453.55 357.031L487.079 324.751L529.409 284H527.154Z" fill="#48403B"/>
<path d="M446.059 349.819L359 433.632V435.733L447.15 350.869L516.608 284H514.426L446.059 349.819Z" fill="#48403B"/>
<path d="M503.298 469.552L536.827 437.273L644.396 333.714L677.925 301.435L696.035 284H693.853L676.834 300.385L569.338 403.874L535.736 436.223L428.24 539.712L398.929 568H401.038L503.298 469.552Z" fill="#48403B"/>
<path d="M435.731 546.924L543.3 443.435L576.829 411.156L684.325 307.597L708.836 284H706.727L683.234 306.546L575.738 410.106L542.209 442.385L508.608 474.664L411.73 568H413.912L435.731 546.924Z" fill="#48403B"/>
<path d="M516.099 481.946L549.701 449.597L657.197 346.107L690.726 313.828L718 287.571V285.47L689.708 312.778L656.106 345.057L582.139 416.267L548.61 448.546L515.081 480.895L441.113 552.105L424.603 568H426.713L516.099 481.946Z" fill="#48403B"/>
<path d="M447.15 486.707L480.679 454.358L588.175 350.869L657.633 284H655.524L620.686 317.539L587.157 349.819L553.555 382.168L479.588 453.378L446.059 485.657L412.53 517.936L360.527 568H362.709L447.15 486.707Z" fill="#48403B"/>
<path d="M398.857 284L388.311 294.223L359 322.441V324.471L389.329 295.273L401.038 284H398.857Z" fill="#48403B"/>
<path d="M394.711 300.385L361.109 332.734L359 334.764V336.865L362.2 333.714L395.802 301.435L413.912 284H411.73L394.711 300.385Z" fill="#48403B"/>
<path d="M359 287.571L362.709 284H360.527L359 285.47V287.571Z" fill="#48403B"/>
<path d="M359 299.894L375.51 284H373.401L359 297.864V299.894Z" fill="#48403B"/>
<path d="M386.056 284L381.838 288.061L359 310.047V312.288L388.383 284H386.056Z" fill="#48403B"/>
<path d="M362.2 469.552L395.802 437.273L503.298 333.714L536.827 301.435L554.937 284H552.828L535.736 300.385L428.24 403.874L394.711 436.223L359 470.603V472.633L362.2 469.552Z" fill="#48403B"/>
<path d="M422.93 398.762L530.427 295.273L542.136 284H539.955L529.336 294.223L495.807 326.502L421.84 397.712L388.311 430.061L359 458.209V460.31L389.329 431.041L422.93 398.762Z" fill="#48403B"/>
<path d="M386.856 357.451L359 384.198V386.299L387.874 358.431L421.476 326.152L465.26 284H463.078L420.385 325.102L386.856 357.451Z" fill="#48403B"/>
<path d="M359 361.582L375.074 346.107L408.602 313.828L439.586 284H437.404L407.512 312.778L373.983 345.057L359 359.481V361.582Z" fill="#48403B"/>
<path d="M389.329 566.88L422.931 534.601L530.427 431.041L563.956 398.762L671.525 295.273L683.162 284H681.053L670.434 294.223L636.832 326.502L529.336 430.061L495.807 462.34L388.311 565.829L386.056 568H388.238L389.329 566.88Z" fill="#48403B"/>
<path d="M375.074 481.946L408.602 449.597L516.099 346.107L549.701 313.828L580.611 284H578.502L548.61 312.778L515.081 345.057L407.512 448.546L373.983 480.895L359 495.32V497.35L375.074 481.946Z" fill="#48403B"/>
<path d="M400.748 506.663L434.277 474.314L541.846 370.824L575.375 338.545L608.903 306.196L631.959 284H629.85L607.813 305.146L574.284 337.495L540.755 369.774L466.787 440.984L433.186 473.263L399.657 505.612L359 544.753V546.854L400.748 506.663Z" fill="#48403B"/>
<path d="M420.021 525.148L453.55 492.869L561.047 389.38L594.648 357.031L628.177 324.751L665.197 289.181L670.507 284H668.179L664.034 288.061L556.465 391.55L522.936 423.829L415.439 527.389L381.838 559.668L373.255 568H375.583L420.021 525.148Z" fill="#48403B"/>
<path d="M359 485.027L402.202 443.435L435.731 411.156L509.699 339.946L543.3 307.597L567.811 284H565.629L542.209 306.546L508.608 338.895L434.64 410.106L401.111 442.385L359 482.926V485.027Z" fill="#48403B"/>
<path d="M415.003 455.758L448.605 423.479L556.101 319.99L589.63 287.641L593.485 284H591.303L588.612 286.661L555.01 318.94L521.481 351.219L447.514 422.429L413.985 454.778L359 507.643V509.744L381.474 488.107L415.003 455.758Z" fill="#48403B"/>
<path d="M421.476 461.99L528.972 358.431L562.501 326.152L606.285 284H604.176L595.012 292.822L561.483 325.102L527.881 357.451L420.385 460.94L386.856 493.219L359 520.036V522.067L387.874 494.269L421.476 461.99Z" fill="#48403B"/>
<path d="M359 557.077V559.177L407.148 512.824L440.75 480.475L474.279 448.196L548.246 376.986L581.775 344.707L615.377 312.358L644.833 284H642.651L580.684 343.657L473.188 447.146L439.659 479.495L359 557.077Z" fill="#48403B"/>
<path d="M978.159 284H975.977L926.883 331.333L819.387 434.822L785.785 467.102L718 532.36V534.461L786.876 468.152L820.405 435.873L894.373 364.663L927.974 332.314L961.503 300.035L978.159 284Z" fill="#48403B"/>
<path d="M834.951 284L819.387 298.984L785.785 331.333L718 396.592V398.622L786.876 332.314L837.061 284H834.951Z" fill="#48403B"/>
<path d="M798.659 343.657L765.057 375.936L718 421.309V423.339L766.148 376.986L799.75 344.707L833.279 312.358L862.735 284H860.625L832.188 311.378L798.659 343.657Z" fill="#48403B"/>
<path d="M718 347.158V349.188L761.202 307.597L785.712 284H783.531L760.111 306.546L718 347.158Z" fill="#48403B"/>
<path d="M806.514 286.661L772.985 318.94L718 371.875V373.905L774.003 319.99L807.605 287.641L811.387 284H809.277L806.514 286.661Z" fill="#48403B"/>
<path d="M825.787 305.146L792.186 337.495L758.657 369.774L718 408.915V411.016L759.748 370.824L793.277 338.545L826.878 306.196L849.934 284H847.752L825.787 305.146Z" fill="#48403B"/>
<path d="M886.154 284L881.936 288.061L774.439 391.55L740.838 423.829L718 445.886V448.056L779.021 389.38L812.55 357.031L846.079 324.751L888.409 284H886.154Z" fill="#48403B"/>
<path d="M805.059 349.819L718 433.632V435.733L806.15 350.869L875.608 284H873.426L805.059 349.819Z" fill="#48403B"/>
<path d="M862.298 469.552L895.827 437.273L1003.4 333.714L1036.93 301.435L1055.04 284H1052.85L1035.83 300.385L928.338 403.874L894.736 436.223L787.24 539.712L757.929 568H760.038L862.298 469.552Z" fill="#48403B"/>
<path d="M806.15 486.707L839.679 454.358L947.175 350.869L1016.63 284H1014.52L979.686 317.539L946.157 349.819L912.555 382.168L838.588 453.378L805.059 485.657L771.53 517.936L719.527 568H721.709L806.15 486.707Z" fill="#48403B"/>
<path d="M757.857 284L747.311 294.223L718 322.441V324.471L748.329 295.273L760.038 284H757.857Z" fill="#48403B"/>
<path d="M753.711 300.385L720.109 332.734L718 334.764V336.865L721.2 333.714L754.802 301.435L772.912 284H770.73L753.711 300.385Z" fill="#48403B"/>
<path d="M718 287.571L721.709 284H719.527L718 285.47V287.571Z" fill="#48403B"/>
<path d="M718 299.894L734.51 284H732.401L718 297.864V299.894Z" fill="#48403B"/>
<path d="M745.056 284L740.838 288.061L718 310.047V312.288L747.383 284H745.056Z" fill="#48403B"/>
<path d="M721.2 469.552L754.802 437.273L862.298 333.714L895.827 301.435L913.937 284H911.828L894.736 300.385L787.24 403.874L753.711 436.223L718 470.603V472.633L721.2 469.552Z" fill="#48403B"/>
<path d="M781.93 398.762L889.427 295.273L901.136 284H898.955L888.336 294.223L854.807 326.502L780.84 397.712L747.311 430.061L718 458.209V460.31L748.329 431.041L781.93 398.762Z" fill="#48403B"/>
<path d="M745.856 357.451L718 384.198V386.299L746.874 358.431L780.476 326.152L824.26 284H822.078L779.385 325.102L745.856 357.451Z" fill="#48403B"/>
<path d="M718 361.582L734.074 346.107L767.602 313.828L798.586 284H796.404L766.512 312.778L732.983 345.057L718 359.481V361.582Z" fill="#48403B"/>
<path d="M748.329 566.88L781.931 534.601L889.427 431.041L922.956 398.762L1030.52 295.273L1042.16 284H1040.05L1029.43 294.223L995.832 326.502L888.336 430.061L854.807 462.34L747.311 565.829L745.056 568H747.238L748.329 566.88Z" fill="#48403B"/>
<path d="M734.074 481.946L767.602 449.597L875.099 346.107L908.701 313.828L939.611 284H937.502L907.61 312.778L874.081 345.057L766.512 448.546L732.983 480.895L718 495.32V497.35L734.074 481.946Z" fill="#48403B"/>
<path d="M759.748 506.663L793.277 474.314L900.846 370.824L934.375 338.545L967.903 306.196L990.959 284H988.85L966.813 305.146L933.284 337.495L899.755 369.774L825.787 440.984L792.186 473.263L758.657 505.612L718 544.753V546.854L759.748 506.663Z" fill="#48403B"/>
<path d="M779.021 525.148L812.55 492.869L920.047 389.38L953.648 357.031L987.177 324.751L1024.2 289.181L1029.51 284H1027.18L1023.03 288.061L915.465 391.55L881.936 423.829L774.439 527.389L740.838 559.668L732.255 568H734.583L779.021 525.148Z" fill="#48403B"/>
<path d="M718 485.027L761.202 443.435L794.731 411.156L868.699 339.946L902.3 307.597L926.811 284H924.629L901.209 306.546L867.608 338.895L793.64 410.106L760.111 442.385L718 482.926V485.027Z" fill="#48403B"/>
<path d="M774.003 455.758L807.605 423.479L915.101 319.99L948.63 287.641L952.485 284H950.303L947.612 286.661L914.01 318.94L880.481 351.219L806.514 422.429L772.985 454.778L718 507.643V509.744L740.474 488.107L774.003 455.758Z" fill="#48403B"/>
<path d="M780.476 461.99L887.972 358.431L921.501 326.152L965.285 284H963.176L954.012 292.822L920.483 325.102L886.881 357.451L779.385 460.94L745.856 493.219L718 520.036V522.067L746.874 494.269L780.476 461.99Z" fill="#48403B"/>
<path d="M718 557.077V559.177L766.148 512.824L799.75 480.475L833.279 448.196L907.246 376.986L940.775 344.707L974.377 312.358L1003.83 284H1001.65L939.684 343.657L832.188 447.146L798.659 479.495L718 557.077Z" fill="#48403B"/>
</g>
<defs>
<clipPath id="clip0">
<rect width="762" height="294" fill="white"/>
</clipPath>
</defs>
</svg>
