<svg width="386" height="161" viewBox="0 0 386 161" fill="none" xmlns="http://www.w3.org/2000/svg">
<g clip-path="url(#clip0)">
<path d="M323 38.5808L313.909 47.3333L206.412 150.822L172.883 183.102L68.0781 284H70.2601L173.974 184.152L207.503 151.873L315 48.3136L323 40.6114V38.5808Z" fill="#48403B" fill-opacity="0.3"/>
<path d="M224.159 0H221.977L172.883 47.3333L65.3869 150.822L31.7852 183.102L-36 248.36V250.461L32.8762 184.152L66.4052 151.873L140.373 80.6627L173.974 48.3136L207.503 16.0345L224.159 0Z" fill="#48403B" fill-opacity="0.3"/>
<path d="M181.829 262.924L289.326 159.435L322.927 127.156L323 127.016V124.915L321.836 126.105L288.235 158.385L254.706 190.664L180.738 261.874L157.828 284H160.01L181.829 262.924Z" fill="#48403B" fill-opacity="0.3"/>
<path d="M262.197 197.946L295.726 165.597L323 139.339V137.309L294.707 164.546L187.138 268.105L170.628 284H172.81L262.197 197.946Z" fill="#48403B" fill-opacity="0.3"/>
<path d="M194.63 275.318L268.597 204.107L302.199 171.758L323 151.733V149.632L301.108 170.778L267.579 203.057L193.612 274.267L183.502 284H185.684L194.63 275.318Z" fill="#48403B" fill-opacity="0.3"/>
<path d="M249.396 185.552L282.925 153.273L316.454 120.924L323 114.622V112.592L315.363 119.874L281.834 152.223L174.338 255.712L144.955 284H147.137L175.429 256.762L249.396 185.552Z" fill="#48403B" fill-opacity="0.3"/>
<path d="M159.646 234.986L193.175 202.707L226.777 170.358L300.744 99.1479L323 77.7219V75.6213L225.686 169.378L192.157 201.657L158.555 233.936L106.625 284H108.807L159.646 234.986Z" fill="#48403B" fill-opacity="0.3"/>
<path d="M80.9513 0L65.3869 14.9842L31.7852 47.3333L-36 112.592V114.622L32.8762 48.3136L83.0605 0H80.9513Z" fill="#48403B" fill-opacity="0.3"/>
<path d="M44.6586 59.6568L11.0569 91.9359L-36 137.309V139.339L12.1479 92.9862L45.7496 60.7071L79.2785 28.358L108.735 0H106.625L78.1876 27.3777L44.6586 59.6568Z" fill="#48403B" fill-opacity="0.3"/>
<path d="M-36 63.1578V65.1884L7.20218 23.5966L31.7125 0H29.5306L6.11121 22.5463L-36 63.1578Z" fill="#48403B" fill-opacity="0.3"/>
<path d="M52.5135 2.66075L18.9846 34.9398L-36 87.8747V89.9053L20.0028 35.9901L53.6045 3.64102L57.3865 0H55.2773L52.5135 2.66075Z" fill="#48403B" fill-opacity="0.3"/>
<path d="M71.7872 21.146L38.1856 53.4951L4.65659 85.7741L-36 124.915V127.016L5.74755 86.8244L39.2765 54.5454L72.8782 22.1962L95.9339 0H93.752L71.7872 21.146Z" fill="#48403B" fill-opacity="0.3"/>
<path d="M132.154 0L127.936 4.06114L20.4392 107.55L-13.1625 139.829L-36 161.886V164.056L25.0212 105.38L58.5502 73.0306L92.0792 40.7515L134.409 0H132.154Z" fill="#48403B" fill-opacity="0.3"/>
<path d="M51.0589 65.8185L-36 149.632V151.733L52.1499 66.8688L121.608 0H119.426L51.0589 65.8185Z" fill="#48403B" fill-opacity="0.3"/>
<path d="M135.427 282.88L168.956 250.601L276.525 147.041L323 102.299V100.198L308.963 113.712L275.434 146.061L241.833 178.34L134.336 281.829L132.154 284H134.263L135.427 282.88Z" fill="#48403B" fill-opacity="0.3"/>
<path d="M108.298 185.552L141.827 153.273L249.396 49.714L282.925 17.4349L301.035 0H298.853L281.834 16.3846L174.338 119.874L140.736 152.223L33.2398 255.712L3.9292 284H6.0384L108.298 185.552Z" fill="#48403B" fill-opacity="0.3"/>
<path d="M40.7312 262.924L148.3 159.435L181.829 127.156L289.326 23.5966L313.836 0H311.727L288.235 22.5463L180.738 126.106L147.209 158.385L113.608 190.664L16.73 284H18.9119L40.7312 262.924Z" fill="#48403B" fill-opacity="0.3"/>
<path d="M121.099 197.946L154.701 165.597L262.197 62.1075L295.726 29.8284L323 3.57099V1.4704L294.708 28.7781L261.106 61.0572L187.139 132.267L153.61 164.546L120.081 196.895L46.1134 268.105L29.6035 284H31.7127L121.099 197.946Z" fill="#48403B" fill-opacity="0.3"/>
<path d="M44.5857 284L53.6044 275.318L161.101 171.758L194.63 139.479L302.199 35.9901L323 15.8945V13.8639L301.108 34.9398L267.579 67.2189L160.01 170.778L52.5134 274.267L42.4038 284H44.5857Z" fill="#48403B" fill-opacity="0.3"/>
<path d="M133.972 210.269L167.501 177.99L275.07 74.431L308.599 42.1519L323 28.288V26.1874L307.508 41.1016L273.979 73.4507L166.483 176.94L132.881 209.219L55.2773 284H57.3865L133.972 210.269Z" fill="#48403B" fill-opacity="0.3"/>
<path d="M146.845 222.663L180.374 190.314L287.871 86.8245L321.472 54.5454L323 53.0049V50.9043L320.381 53.4951L286.78 85.7742L179.283 189.263L145.754 221.612L80.9512 284H83.1331L146.845 222.663Z" fill="#48403B" fill-opacity="0.3"/>
<path d="M166.047 241.148L199.648 208.869L307.145 105.38L323 90.0453V87.8747L302.563 107.55L269.034 139.829L235.432 172.178L161.465 243.389L127.936 275.668L119.281 284H121.608L166.047 241.148Z" fill="#48403B" fill-opacity="0.3"/>
<path d="M95.9339 284L186.775 196.475L294.271 92.9862L323 65.3284V63.2978L219.286 163.146L185.684 195.495L93.752 284H95.9339Z" fill="#48403B" fill-opacity="0.3"/>
<path d="M52.1499 202.707L85.6789 170.358L193.175 66.8688L262.633 0H260.524L225.686 33.5394L192.157 65.8185L158.555 98.1676L84.5879 169.378L51.0589 201.657L17.53 233.936L-34.4727 284H-32.2907L52.1499 202.707Z" fill="#48403B" fill-opacity="0.3"/>
<path d="M3.85655 0L-6.68943 10.2229L-36 38.4408V40.4714L-5.6712 11.2732L6.03848 0H3.85655Z" fill="#48403B" fill-opacity="0.3"/>
<path d="M-0.289108 16.3846L-33.8908 48.7337L-36 50.7643V52.8649L-32.7998 49.714L0.801853 17.4349L18.9119 0H16.7299L-0.289108 16.3846Z" fill="#48403B" fill-opacity="0.3"/>
<path d="M-32.7998 185.552L0.801853 153.273L108.298 49.714L141.827 17.4349L159.937 0H157.828L140.736 16.3846L33.2398 119.874L-0.289108 152.223L-36 186.603V188.633L-32.7998 185.552Z" fill="#48403B" fill-opacity="0.3"/>
<path d="M27.9305 114.762L135.427 11.2732L147.136 0H144.955L134.336 10.2229L100.807 42.502L26.8395 113.712L-6.68943 146.061L-36 174.209V176.31L-5.6712 147.041L27.9305 114.762Z" fill="#48403B" fill-opacity="0.3"/>
<path d="M-8.14405 73.4507L-36 100.198V102.299L-7.12582 74.431L26.4759 42.1519L70.2599 0H68.078L25.3849 41.1016L-8.14405 73.4507Z" fill="#48403B" fill-opacity="0.3"/>
<path d="M-36 77.5818L-19.9265 62.1075L13.6025 29.8284L44.5859 0H42.404L12.5115 28.7781L-21.0174 61.0572L-36 75.4812V77.5818Z" fill="#48403B" fill-opacity="0.3"/>
<path d="M-5.67096 282.88L27.9307 250.601L135.427 147.041L168.956 114.762L276.525 11.2732L288.162 0H286.053L275.434 10.2229L241.832 42.502L134.336 146.061L100.807 178.34L-6.68919 281.829L-8.94385 284H-6.76192L-5.67096 282.88Z" fill="#48403B" fill-opacity="0.3"/>
<path d="M-19.9265 197.946L13.6025 165.597L121.099 62.1075L154.701 29.8284L185.611 0H183.502L153.61 28.7781L120.081 61.0572L12.5115 164.546L-21.0174 196.895L-36 211.32V213.35L-19.9265 197.946Z" fill="#48403B" fill-opacity="0.3"/>
<path d="M5.74755 222.663L39.2765 190.314L146.846 86.8244L180.375 54.5454L213.903 22.1962L236.959 0H234.85L212.813 21.146L179.284 53.4951L145.755 85.7741L71.7872 156.984L38.1855 189.263L4.65659 221.612L-36 260.753V262.854L5.74755 222.663Z" fill="#48403B" fill-opacity="0.3"/>
<path d="M25.0214 241.148L58.5503 208.869L166.047 105.38L199.648 73.0306L233.177 40.7515L270.197 5.18146L275.507 0H273.179L269.034 4.06114L161.465 107.55L127.936 139.829L20.4393 243.389L-13.1624 275.668L-21.7446 284H-19.4172L25.0214 241.148Z" fill="#48403B" fill-opacity="0.3"/>
<path d="M-36 201.027L7.20218 159.435L40.7311 127.156L114.699 55.9458L148.3 23.5966L172.811 0H170.629L147.209 22.5463L113.608 54.8955L39.6402 126.106L6.11121 158.385L-36 198.926V201.027Z" fill="#48403B" fill-opacity="0.3"/>
<path d="M20.0028 171.758L53.6045 139.479L161.101 35.9901L194.63 3.64102L198.485 0H196.303L193.612 2.66075L160.01 34.9398L126.481 67.2189L52.5135 138.429L18.9846 170.778L-36 223.643V225.744L-13.5261 204.107L20.0028 171.758Z" fill="#48403B" fill-opacity="0.3"/>
<path d="M26.4759 177.99L133.972 74.431L167.501 42.1519L211.285 0H209.176L200.012 8.82248L166.483 41.1016L132.881 73.4507L25.3849 176.94L-8.14405 209.219L-36 236.036V238.067L-7.12582 210.269L26.4759 177.99Z" fill="#48403B" fill-opacity="0.3"/>
<path d="M-36 273.077V275.177L12.1479 228.824L45.7496 196.475L79.2785 164.196L153.246 92.9862L186.775 60.7071L220.377 28.358L249.833 0H247.651L185.684 59.6568L78.1876 163.146L44.6586 195.495L-36 273.077Z" fill="#48403B" fill-opacity="0.3"/>
<path d="M583.159 0H580.977L531.883 47.3333L424.387 150.822L390.785 183.102L323 248.36V250.461L391.876 184.152L425.405 151.873L499.373 80.6627L532.974 48.3136L566.503 16.0345L583.159 0Z" fill="#48403B" fill-opacity="0.3"/>
<path d="M439.951 0L424.387 14.9842L390.785 47.3333L323 112.592V114.622L391.876 48.3136L442.061 0H439.951Z" fill="#48403B" fill-opacity="0.3"/>
<path d="M403.659 59.6568L370.057 91.9359L323 137.309V139.339L371.148 92.9862L404.75 60.7071L438.279 28.358L467.735 0H465.625L437.188 27.3777L403.659 59.6568Z" fill="#48403B" fill-opacity="0.3"/>
<path d="M323 63.1578V65.1884L366.202 23.5966L390.712 0H388.531L365.111 22.5463L323 63.1578Z" fill="#48403B" fill-opacity="0.3"/>
<path d="M411.514 2.66075L377.985 34.9398L323 87.8747V89.9053L379.003 35.9901L412.605 3.64102L416.387 0H414.277L411.514 2.66075Z" fill="#48403B" fill-opacity="0.3"/>
<path d="M430.787 21.146L397.186 53.4951L363.657 85.7741L323 124.915V127.016L364.748 86.8244L398.277 54.5454L431.878 22.1962L454.934 0H452.752L430.787 21.146Z" fill="#48403B" fill-opacity="0.3"/>
<path d="M491.154 0L486.936 4.06114L379.439 107.55L345.838 139.829L323 161.886V164.056L384.021 105.38L417.55 73.0306L451.079 40.7515L493.409 0H491.154Z" fill="#48403B" fill-opacity="0.3"/>
<path d="M410.059 65.8185L323 149.632V151.733L411.15 66.8688L480.608 0H478.426L410.059 65.8185Z" fill="#48403B" fill-opacity="0.3"/>
<path d="M467.298 185.552L500.827 153.273L608.396 49.714L641.925 17.4349L660.035 0H657.853L640.834 16.3846L533.338 119.874L499.736 152.223L392.24 255.712L362.929 284H365.038L467.298 185.552Z" fill="#48403B" fill-opacity="0.3"/>
<path d="M399.731 262.924L507.3 159.435L540.829 127.156L648.326 23.5966L672.836 0H670.727L647.235 22.5463L539.738 126.106L506.209 158.385L472.608 190.664L375.73 284H377.912L399.731 262.924Z" fill="#48403B" fill-opacity="0.3"/>
<path d="M411.15 202.707L444.679 170.358L552.175 66.8688L621.633 0H619.524L584.686 33.5394L551.157 65.8185L517.555 98.1676L443.588 169.378L410.059 201.657L376.53 233.936L324.527 284H326.709L411.15 202.707Z" fill="#48403B" fill-opacity="0.3"/>
<path d="M362.857 0L352.311 10.2229L323 38.4408V40.4714L353.329 11.2732L365.038 0H362.857Z" fill="#48403B" fill-opacity="0.3"/>
<path d="M358.711 16.3846L325.109 48.7337L323 50.7643V52.8649L326.2 49.714L359.802 17.4349L377.912 0H375.73L358.711 16.3846Z" fill="#48403B" fill-opacity="0.3"/>
<path d="M323 3.571L326.709 0H324.527L323 1.47041V3.571Z" fill="#48403B" fill-opacity="0.3"/>
<path d="M323 15.8945L339.51 0H337.401L323 13.8639V15.8945Z" fill="#48403B" fill-opacity="0.3"/>
<path d="M350.056 0L345.838 4.06114L323 26.0473V28.288L352.383 0H350.056Z" fill="#48403B" fill-opacity="0.3"/>
<path d="M326.2 185.552L359.802 153.273L467.298 49.714L500.827 17.4349L518.937 0H516.828L499.736 16.3846L392.24 119.874L358.711 152.223L323 186.603V188.633L326.2 185.552Z" fill="#48403B" fill-opacity="0.3"/>
<path d="M386.93 114.762L494.427 11.2732L506.136 0H503.955L493.336 10.2229L459.807 42.502L385.84 113.712L352.311 146.061L323 174.209V176.31L353.329 147.041L386.93 114.762Z" fill="#48403B" fill-opacity="0.3"/>
<path d="M350.856 73.4507L323 100.198V102.299L351.874 74.431L385.476 42.1519L429.26 0H427.078L384.385 41.1016L350.856 73.4507Z" fill="#48403B" fill-opacity="0.3"/>
<path d="M323 77.5818L339.074 62.1075L372.602 29.8284L403.586 0H401.404L371.512 28.7781L337.983 61.0572L323 75.4812V77.5818Z" fill="#48403B" fill-opacity="0.3"/>
<path d="M353.329 282.88L386.931 250.601L494.427 147.041L527.956 114.762L635.525 11.2732L647.162 0H645.053L634.434 10.2229L600.832 42.502L493.336 146.061L459.807 178.34L352.311 281.829L350.056 284H352.238L353.329 282.88Z" fill="#48403B" fill-opacity="0.3"/>
<path d="M339.074 197.946L372.602 165.597L480.099 62.1075L513.701 29.8284L544.611 0H542.502L512.61 28.7781L479.081 61.0572L371.512 164.546L337.983 196.895L323 211.32V213.35L339.074 197.946Z" fill="#48403B" fill-opacity="0.3"/>
<path d="M364.748 222.663L398.277 190.314L505.846 86.8244L539.375 54.5454L572.903 22.1962L595.959 0H593.85L571.813 21.146L538.284 53.4951L504.755 85.7741L430.787 156.984L397.186 189.263L363.657 221.612L323 260.753V262.854L364.748 222.663Z" fill="#48403B" fill-opacity="0.3"/>
<path d="M384.021 241.148L417.55 208.869L525.047 105.38L558.648 73.0306L592.177 40.7515L629.197 5.18146L634.507 0H632.179L628.034 4.06114L520.465 107.55L486.936 139.829L379.439 243.389L345.838 275.668L337.255 284H339.583L384.021 241.148Z" fill="#48403B" fill-opacity="0.3"/>
<path d="M323 201.027L366.202 159.435L399.731 127.156L473.699 55.9458L507.3 23.5966L531.811 0H529.629L506.209 22.5463L472.608 54.8955L398.64 126.106L365.111 158.385L323 198.926V201.027Z" fill="#48403B" fill-opacity="0.3"/>
<path d="M379.003 171.758L412.605 139.479L520.101 35.9901L553.63 3.64102L557.485 0H555.303L552.612 2.66075L519.01 34.9398L485.481 67.2189L411.514 138.429L377.985 170.778L323 223.643V225.744L345.474 204.107L379.003 171.758Z" fill="#48403B" fill-opacity="0.3"/>
<path d="M385.476 177.99L492.972 74.431L526.501 42.1519L570.285 0H568.176L559.012 8.82248L525.483 41.1016L491.881 73.4507L384.385 176.94L350.856 209.219L323 236.036V238.067L351.874 210.269L385.476 177.99Z" fill="#48403B" fill-opacity="0.3"/>
<path d="M323 273.077V275.177L371.148 228.824L404.75 196.475L438.279 164.196L512.246 92.9862L545.775 60.7071L579.377 28.358L608.833 0H606.651L544.684 59.6568L437.188 163.146L403.659 195.495L323 273.077Z" fill="#48403B" fill-opacity="0.3"/>
</g>
<defs>
<clipPath id="clip0">
<rect width="422" height="161" fill="white" transform="translate(-36)"/>
</clipPath>
</defs>
</svg>
