<svg width="672" height="124" viewBox="0 0 672 124" fill="none" xmlns="http://www.w3.org/2000/svg">
<g clip-path="url(#clip0)">
<path d="M149.351 43.9788L160.273 33.0582L171.406 44.1905L174.158 41.4392L163.024 30.3069L173.946 19.3862L171.237 16.6349L160.273 27.5979L149.52 16.8466L146.811 19.5556L157.563 30.3069L146.599 41.2698L149.351 43.9788Z" fill="#48403B" fill-opacity="0.3"/>
<path d="M149.351 104L160.273 93.037L171.406 104.169L174.158 101.418L163.024 90.328L173.946 79.3651L171.237 76.6561L160.273 87.5767L149.52 76.8254L146.811 79.5767L157.563 90.328L146.599 101.249L149.351 104Z" fill="#48403B" fill-opacity="0.3"/>
<path d="M89.3649 43.9788L100.287 33.0582L111.42 44.1905L114.13 41.4392L103.039 30.3069L113.96 19.3862L111.209 16.6349L100.287 27.5979L89.5343 16.8466L86.7826 19.5556L97.5352 30.3069L86.6133 41.2698L89.3649 43.9788Z" fill="#48403B" fill-opacity="0.3"/>
<path d="M103.039 90.328L113.96 79.3651L111.209 76.6561L100.287 87.5767L89.5343 76.8254L86.7826 79.5767L97.5352 90.328L86.6133 101.249L89.3649 104L100.287 93.037L111.42 104.169L114.13 101.418L103.039 90.328Z" fill="#48403B" fill-opacity="0.3"/>
<path d="M53.9746 19.3862L51.2229 16.6349L40.301 27.5979L29.5484 16.8466L26.7968 19.5556L37.5494 30.3069L26.6274 41.2698L29.3368 43.9788L40.301 33.0582L51.4346 44.1905L54.1439 41.4392L43.0103 30.3069L53.9746 19.3862Z" fill="#48403B" fill-opacity="0.3"/>
<path d="M43.0103 90.328L53.9746 79.3651L51.2229 76.6561L40.301 87.5767L29.5484 76.8254L26.7968 79.5767L37.5494 90.328L26.6274 101.249L29.3368 104L40.301 93.037L51.4346 104.169L54.1439 101.418L43.0103 90.328Z" fill="#48403B" fill-opacity="0.3"/>
<path d="M329.351 43.9788L340.273 33.0582L351.406 44.1905L354.158 41.4392L343.024 30.3069L353.946 19.3862L351.237 16.6349L340.273 27.5979L329.52 16.8466L326.811 19.5556L337.563 30.3069L326.599 41.2698L329.351 43.9788Z" fill="#48403B" fill-opacity="0.3"/>
<path d="M329.351 104L340.273 93.037L351.406 104.169L354.158 101.418L343.024 90.328L353.946 79.3651L351.237 76.6561L340.273 87.5767L329.52 76.8254L326.811 79.5767L337.563 90.328L326.599 101.249L329.351 104Z" fill="#48403B" fill-opacity="0.3"/>
<path d="M269.365 43.9788L280.287 33.0582L291.42 44.1905L294.13 41.4392L283.039 30.3069L293.96 19.3862L291.209 16.6349L280.287 27.5979L269.534 16.8466L266.783 19.5556L277.535 30.3069L266.613 41.2698L269.365 43.9788Z" fill="#48403B" fill-opacity="0.3"/>
<path d="M283.039 90.328L293.96 79.3651L291.209 76.6561L280.287 87.5767L269.534 76.8254L266.783 79.5767L277.535 90.328L266.613 101.249L269.365 104L280.287 93.037L291.42 104.169L294.13 101.418L283.039 90.328Z" fill="#48403B" fill-opacity="0.3"/>
<path d="M233.975 19.3862L231.223 16.6349L220.301 27.5979L209.548 16.8466L206.797 19.5556L217.549 30.3069L206.627 41.2698L209.337 43.9788L220.301 33.0582L231.435 44.1905L234.144 41.4392L223.01 30.3069L233.975 19.3862Z" fill="#48403B" fill-opacity="0.3"/>
<path d="M223.01 90.328L233.975 79.3651L231.223 76.6561L220.301 87.5767L209.548 76.8254L206.797 79.5767L217.549 90.328L206.627 101.249L209.337 104L220.301 93.037L231.435 104.169L234.144 101.418L223.01 90.328Z" fill="#48403B" fill-opacity="0.3"/>
<path d="M509.351 43.9788L520.273 33.0582L531.406 44.1905L534.158 41.4392L523.024 30.3069L533.946 19.3862L531.237 16.6349L520.273 27.5979L509.52 16.8466L506.811 19.5556L517.563 30.3069L506.599 41.2698L509.351 43.9788Z" fill="#48403B" fill-opacity="0.3"/>
<path d="M509.351 104L520.273 93.037L531.406 104.169L534.158 101.418L523.024 90.328L533.946 79.3651L531.237 76.6561L520.273 87.5767L509.52 76.8254L506.811 79.5767L517.563 90.328L506.599 101.249L509.351 104Z" fill="#48403B" fill-opacity="0.3"/>
<path d="M449.365 43.9788L460.287 33.0582L471.42 44.1905L474.13 41.4392L463.039 30.3069L473.96 19.3862L471.209 16.6349L460.287 27.5979L449.534 16.8466L446.783 19.5556L457.535 30.3069L446.613 41.2698L449.365 43.9788Z" fill="#48403B" fill-opacity="0.3"/>
<path d="M463.039 90.328L473.96 79.3651L471.209 76.6561L460.287 87.5767L449.534 76.8254L446.783 79.5767L457.535 90.328L446.613 101.249L449.365 104L460.287 93.037L471.42 104.169L474.13 101.418L463.039 90.328Z" fill="#48403B" fill-opacity="0.3"/>
<path d="M413.975 19.3862L411.223 16.6349L400.301 27.5979L389.548 16.8466L386.797 19.5556L397.549 30.3069L386.627 41.2698L389.337 43.9788L400.301 33.0582L411.435 44.1905L414.144 41.4392L403.01 30.3069L413.975 19.3862Z" fill="#48403B" fill-opacity="0.3"/>
<path d="M403.01 90.328L413.975 79.3651L411.223 76.6561L400.301 87.5767L389.548 76.8254L386.797 79.5767L397.549 90.328L386.627 101.249L389.337 104L400.301 93.037L411.435 104.169L414.144 101.418L403.01 90.328Z" fill="#48403B" fill-opacity="0.3"/>
<path d="M629.365 43.9788L640.287 33.0582L651.421 44.1905L654.13 41.4392L643.039 30.3069L653.96 19.3862L651.209 16.6349L640.287 27.5979L629.534 16.8466L626.783 19.5556L637.535 30.3069L626.613 41.2698L629.365 43.9788Z" fill="#48403B" fill-opacity="0.3"/>
<path d="M643.039 90.328L653.96 79.3651L651.209 76.6561L640.287 87.5767L629.534 76.8254L626.783 79.5767L637.535 90.328L626.613 101.249L629.365 104L640.287 93.037L651.421 104.169L654.13 101.418L643.039 90.328Z" fill="#48403B" fill-opacity="0.3"/>
<path d="M593.975 19.3862L591.223 16.6349L580.301 27.5979L569.548 16.8466L566.797 19.5556L577.549 30.3069L566.627 41.2698L569.337 43.9788L580.301 33.0582L591.435 44.1905L594.144 41.4392L583.01 30.3069L593.975 19.3862Z" fill="#48403B" fill-opacity="0.3"/>
<path d="M583.01 90.328L593.975 79.3651L591.223 76.6561L580.301 87.5767L569.548 76.8254L566.797 79.5767L577.549 90.328L566.627 101.249L569.337 104L580.301 93.037L591.435 104.169L594.144 101.418L583.01 90.328Z" fill="#48403B" fill-opacity="0.3"/>
</g>
<defs>
<clipPath id="clip0">
<rect width="672" height="124" fill="white"/>
</clipPath>
</defs>
</svg>
