<svg width="27" height="27" viewBox="0 0 27 27" fill="none" xmlns="http://www.w3.org/2000/svg">
<path d="M1.69065 4.31578L1.69063 4.31577L1.68971 4.31769C0.189088 7.4718 0.856969 11.2877 3.43834 13.8577L13.2354 23.6118C14.8184 25.1879 16.9843 26.1 19.3158 26.1C20.6413 26.1 21.9796 25.8533 22.9902 25.1839C23.732 24.7735 24.3914 24.3631 25.0486 23.9542L25.0493 23.9538L25.0494 23.9539L25.0544 23.9503C25.6537 23.5241 25.9978 22.9252 26.0836 22.242C26.1702 21.5524 25.9099 20.8667 25.3963 20.3554L20.6213 15.6013C20.1917 15.1735 19.5903 14.9164 18.9865 14.9164C18.2156 14.9164 17.5263 15.2579 17.0948 15.8588C17.0945 15.8591 17.0943 15.8594 17.0941 15.8597L16.6024 16.5123C16.4581 16.6912 16.2188 16.8036 15.9639 16.8224C15.7093 16.8412 15.4516 16.7656 15.27 16.5849L10.4127 11.7488C10.2974 11.6341 10.2237 11.5226 10.1781 11.4045C10.1323 11.286 10.1128 11.1555 10.1128 11C10.1128 10.7111 10.2558 10.4943 10.4797 10.3456L10.4798 10.3457L10.4843 10.3424L11.142 9.8513C11.7469 9.42067 12.0033 8.81773 12.0879 8.1436L12.0887 8.1437V8.13115C12.0887 7.45636 11.9182 6.85427 11.4006 6.33897L6.62558 1.58487C6.19593 1.1571 5.59455 0.9 4.9908 0.9C4.21267 0.9 3.52646 1.32954 3.09953 1.92365C2.51778 2.66876 2.1027 3.49527 1.69273 4.31163L1.69065 4.31578ZM4.24739 2.78148L4.24752 2.78157L4.25061 2.77695C4.39437 2.56225 4.69043 2.41148 4.9908 2.41148C5.21806 2.41148 5.43723 2.48723 5.57887 2.62824L5.57886 2.62825L5.57947 2.62884L10.4362 7.38234C10.4363 7.38243 10.4364 7.38253 10.4365 7.38262C10.5516 7.49724 10.6252 7.60861 10.6708 7.72661C10.7165 7.84514 10.7361 7.9756 10.7361 8.13115C10.7361 8.42002 10.5931 8.63688 10.3691 8.78554L10.369 8.78541L10.3646 8.78873L9.70689 9.27985C9.10199 9.71047 8.84562 10.3134 8.76099 10.9875L8.76021 10.9874V11C8.76021 11.6744 8.93051 12.2762 9.44738 12.7913L14.2215 17.7904L14.2215 17.7904L14.2233 17.7922C14.6529 18.2199 15.2543 18.477 15.8581 18.477C16.629 18.477 17.3183 18.1355 17.7498 17.5347C17.7501 17.5344 17.7503 17.534 17.7505 17.5337L18.2422 16.8811C18.3865 16.7023 18.6258 16.5898 18.8807 16.571C19.1353 16.5523 19.393 16.6278 19.5746 16.8086L24.3496 21.5627C24.4648 21.6774 24.5385 21.7888 24.5842 21.9069C24.63 22.0255 24.6495 22.1559 24.6495 22.3115C24.6495 22.5998 24.507 22.8164 24.2837 22.9651C23.6278 23.3732 23.0546 23.6992 22.3997 24.0252C21.4263 24.5098 20.3713 24.7525 19.2335 24.7525C17.3667 24.7525 15.5807 24.0254 14.1997 22.6504L4.40273 12.8963C2.29174 10.7946 1.72443 7.56179 2.94021 4.97817C3.35071 4.16084 3.75903 3.42977 4.24739 2.78148Z" fill="#E6E1CE" stroke="#E6E1CE" stroke-width="0.2"/>
</svg>
