<svg width="96" height="96" viewBox="0 0 96 96" fill="none" xmlns="http://www.w3.org/2000/svg">
<g clip-path="url(#clip0)">
<path d="M260.159 0H257.977L208.883 47.3333L101.387 150.822L67.7852 183.102L0 248.36V250.461L68.8762 184.152L102.405 151.873L176.373 80.6627L209.974 48.3136L243.503 16.0345L260.159 0Z" fill="#0C0C0C"/>
<path d="M116.951 0L101.387 14.9842L67.7852 47.3333L0 112.592V114.622L68.8762 48.3136L119.061 0H116.951Z" fill="#0C0C0C"/>
<path d="M80.6586 59.6568L47.0569 91.9359L0 137.309V139.339L48.1479 92.9862L81.7496 60.7071L115.279 28.358L144.735 0H142.625L114.188 27.3777L80.6586 59.6568Z" fill="#0C0C0C"/>
<path d="M0 63.1578V65.1884L43.2022 23.5966L67.7125 0H65.5306L42.1112 22.5463L0 63.1578Z" fill="#0C0C0C"/>
<path d="M88.5135 2.66075L54.9846 34.9398L0 87.8747V89.9053L56.0028 35.9901L89.6045 3.64102L93.3865 0H91.2773L88.5135 2.66075Z" fill="#0C0C0C"/>
<path d="M107.787 21.146L74.1856 53.4951L40.6566 85.7741L0 124.915V127.016L41.7476 86.8244L75.2765 54.5454L108.878 22.1962L131.934 0H129.752L107.787 21.146Z" fill="#0C0C0C"/>
<path d="M168.154 0L163.936 4.06114L56.4392 107.55L22.8375 139.829L0 161.886V164.056L61.0212 105.38L94.5502 73.0306L128.079 40.7515L170.409 0H168.154Z" fill="#0C0C0C"/>
<path d="M87.0589 65.8185L0 149.632V151.733L88.1499 66.8688L157.608 0H155.426L87.0589 65.8185Z" fill="#0C0C0C"/>
<path d="M144.298 185.552L177.827 153.273L285.396 49.714L318.925 17.4349L337.035 0H334.853L317.834 16.3846L210.338 119.874L176.736 152.223L69.2398 255.712L39.9292 284H42.0384L144.298 185.552Z" fill="#0C0C0C"/>
<path d="M76.7312 262.924L184.3 159.435L217.829 127.156L325.326 23.5966L349.836 0H347.727L324.235 22.5463L216.738 126.106L183.209 158.385L149.608 190.664L52.73 284H54.9119L76.7312 262.924Z" fill="#0C0C0C"/>
<path d="M157.099 197.946L190.701 165.597L298.197 62.1074L331.726 29.8283L359 3.57093V1.47034L330.708 28.778L297.106 61.0571L223.139 132.267L189.61 164.546L156.081 196.895L82.1134 268.105L65.6035 284H67.7127L157.099 197.946Z" fill="#0C0C0C"/>
<path d="M80.5857 284L89.6044 275.318L197.101 171.758L230.63 139.479L338.199 35.9901L359 15.8945V13.8639L337.108 34.9398L303.579 67.2189L196.01 170.778L88.5134 274.267L78.4038 284H80.5857Z" fill="#0C0C0C"/>
<path d="M169.972 210.269L203.501 177.99L311.07 74.431L344.599 42.1519L359 28.288V26.1874L343.508 41.1016L309.979 73.4507L202.483 176.94L168.881 209.219L91.2773 284H93.3865L169.972 210.269Z" fill="#0C0C0C"/>
<path d="M88.1499 202.707L121.679 170.358L229.175 66.8688L298.633 0H296.524L261.686 33.5394L228.157 65.8185L194.555 98.1676L120.588 169.378L87.0589 201.657L53.53 233.936L1.52734 284H3.70927L88.1499 202.707Z" fill="#0C0C0C"/>
<path d="M39.8566 0L29.3106 10.2229L0 38.4408V40.4714L30.3288 11.2732L42.0385 0H39.8566Z" fill="#0C0C0C"/>
<path d="M35.7109 16.3846L2.1092 48.7337L0 50.7643V52.8649L3.20016 49.714L36.8019 17.4349L54.9119 0H52.7299L35.7109 16.3846Z" fill="#0C0C0C"/>
<path d="M0 3.571L3.70928 0H1.52735L0 1.47041V3.571Z" fill="#0C0C0C"/>
<path d="M0 15.8945L16.5099 0H14.4007L0 13.8639V15.8945Z" fill="#0C0C0C"/>
<path d="M27.0559 0L22.8375 4.06114L0 26.0473V28.288L29.3833 0H27.0559Z" fill="#0C0C0C"/>
<path d="M3.20016 185.552L36.8019 153.273L144.298 49.714L177.827 17.4349L195.937 0H193.828L176.736 16.3846L69.2398 119.874L35.7109 152.223L0 186.603V188.633L3.20016 185.552Z" fill="#0C0C0C"/>
<path d="M63.9305 114.762L171.427 11.2732L183.136 0H180.955L170.336 10.2229L136.807 42.502L62.8395 113.712L29.3106 146.061L0 174.209V176.31L30.3288 147.041L63.9305 114.762Z" fill="#0C0C0C"/>
<path d="M27.8559 73.4507L0 100.198V102.299L28.8742 74.431L62.4759 42.1519L106.26 0H104.078L61.3849 41.1016L27.8559 73.4507Z" fill="#0C0C0C"/>
<path d="M0 77.5818L16.0735 62.1075L49.6025 29.8284L80.5859 0H78.404L48.5115 28.7781L14.9826 61.0572L0 75.4812V77.5818Z" fill="#0C0C0C"/>
<path d="M30.329 282.88L63.9307 250.601L171.427 147.041L204.956 114.762L312.525 11.2732L324.162 0H322.053L311.434 10.2229L277.832 42.502L170.336 146.061L136.807 178.34L29.3108 281.829L27.0562 284H29.2381L30.329 282.88Z" fill="#0C0C0C"/>
<path d="M16.0735 197.946L49.6025 165.597L157.099 62.1075L190.701 29.8284L221.611 0H219.502L189.61 28.7781L156.081 61.0572L48.5115 164.546L14.9826 196.895L0 211.32V213.35L16.0735 197.946Z" fill="#0C0C0C"/>
<path d="M41.7476 222.663L75.2765 190.314L182.846 86.8244L216.375 54.5454L249.903 22.1962L272.959 0H270.85L248.813 21.146L215.284 53.4951L181.755 85.7741L107.787 156.984L74.1855 189.263L40.6566 221.612L0 260.753V262.854L41.7476 222.663Z" fill="#0C0C0C"/>
<path d="M61.0214 241.148L94.5503 208.869L202.047 105.38L235.648 73.0306L269.177 40.7515L306.197 5.18146L311.507 0H309.179L305.034 4.06114L197.465 107.55L163.936 139.829L56.4393 243.389L22.8376 275.668L14.2554 284H16.5828L61.0214 241.148Z" fill="#0C0C0C"/>
<path d="M0 201.027L43.2022 159.435L76.7311 127.156L150.699 55.9458L184.3 23.5966L208.811 0H206.629L183.209 22.5463L149.608 54.8955L75.6402 126.106L42.1112 158.385L0 198.926V201.027Z" fill="#0C0C0C"/>
<path d="M56.0028 171.758L89.6045 139.479L197.101 35.9901L230.63 3.64102L234.485 0H232.303L229.612 2.66075L196.01 34.9398L162.481 67.2189L88.5135 138.429L54.9846 170.778L0 223.643V225.744L22.4739 204.107L56.0028 171.758Z" fill="#0C0C0C"/>
<path d="M62.4759 177.99L169.972 74.431L203.501 42.1519L247.285 0H245.176L236.012 8.82248L202.483 41.1016L168.881 73.4507L61.3849 176.94L27.8559 209.219L0 236.036V238.067L28.8742 210.269L62.4759 177.99Z" fill="#0C0C0C"/>
<path d="M0 273.077V275.177L48.1479 228.824L81.7496 196.475L115.279 164.196L189.246 92.9862L222.775 60.7071L256.377 28.358L285.833 0H283.651L221.684 59.6568L114.188 163.146L80.6586 195.495L0 273.077Z" fill="#0C0C0C"/>
</g>
<defs>
<clipPath id="clip0">
<rect width="96" height="96" fill="white"/>
</clipPath>
</defs>
</svg>
