<svg width="504" height="165" viewBox="0 0 504 165" fill="none" xmlns="http://www.w3.org/2000/svg">
<g clip-path="url(#clip0)">
<path d="M359 38.5809L349.909 47.3333L242.412 150.822L208.883 183.102L104.078 284H106.26L209.974 184.152L243.503 151.873L351 48.3136L359 40.6114V38.5809Z" fill="#0C0C0C"/>
<path d="M260.159 0H257.977L208.883 47.3333L101.387 150.822L67.7852 183.102L0 248.36V250.461L68.8762 184.152L102.405 151.873L176.373 80.6627L209.974 48.3136L243.503 16.0345L260.159 0Z" fill="#0C0C0C"/>
<path d="M217.829 262.924L325.325 159.435L358.927 127.156L359 127.016V124.915L357.836 126.105L324.234 158.385L290.705 190.664L216.738 261.874L193.828 284H196.01L217.829 262.924Z" fill="#0C0C0C"/>
<path d="M298.197 197.946L331.726 165.597L359 139.339V137.309L330.708 164.546L223.139 268.105L206.629 284H208.811L298.197 197.946Z" fill="#0C0C0C"/>
<path d="M230.63 275.318L304.597 204.107L338.199 171.758L359 151.733V149.632L337.108 170.778L303.579 203.057L229.611 274.267L219.502 284H221.684L230.63 275.318Z" fill="#0C0C0C"/>
<path d="M237.103 281.479L311.071 210.269L344.6 177.99L359 164.056V162.026L343.509 176.94L309.98 209.219L232.303 284H234.485L237.103 281.479Z" fill="#0C0C0C"/>
<path d="M285.396 185.552L318.925 153.273L352.454 120.924L359 114.622V112.592L351.363 119.874L317.834 152.223L210.338 255.712L180.954 284H183.136L211.429 256.762L285.396 185.552Z" fill="#0C0C0C"/>
<path d="M195.646 234.986L229.175 202.707L262.777 170.358L336.744 99.1479L359 77.7219V75.6213L261.686 169.378L228.157 201.657L194.555 233.936L142.625 284H144.807L195.646 234.986Z" fill="#0C0C0C"/>
<path d="M116.951 0L101.387 14.9842L67.7852 47.3333L0 112.592V114.622L68.8762 48.3136L119.061 0H116.951Z" fill="#0C0C0C"/>
<path d="M80.6586 59.6568L47.0569 91.9359L0 137.309V139.339L48.1479 92.9862L81.7496 60.7071L115.279 28.358L144.735 0H142.625L114.188 27.3777L80.6586 59.6568Z" fill="#0C0C0C"/>
<path d="M0 63.1578V65.1884L43.2022 23.5966L67.7125 0H65.5306L42.1112 22.5463L0 63.1578Z" fill="#0C0C0C"/>
<path d="M88.5135 2.66075L54.9846 34.9398L0 87.8747V89.9053L56.0028 35.9901L89.6045 3.64102L93.3865 0H91.2773L88.5135 2.66075Z" fill="#0C0C0C"/>
<path d="M107.787 21.146L74.1856 53.4951L40.6566 85.7741L0 124.915V127.016L41.7476 86.8244L75.2765 54.5454L108.878 22.1962L131.934 0H129.752L107.787 21.146Z" fill="#0C0C0C"/>
<path d="M168.154 0L163.936 4.06114L56.4392 107.55L22.8375 139.829L0 161.886V164.056L61.0212 105.38L94.5502 73.0306L128.079 40.7515L170.409 0H168.154Z" fill="#0C0C0C"/>
<path d="M87.0589 65.8185L0 149.632V151.733L88.1499 66.8688L157.608 0H155.426L87.0589 65.8185Z" fill="#0C0C0C"/>
<path d="M171.427 282.88L204.956 250.601L312.525 147.041L359 102.299V100.198L344.963 113.712L311.434 146.061L277.832 178.34L170.336 281.829L168.154 284H170.263L171.427 282.88Z" fill="#0C0C0C"/>
<path d="M144.298 185.552L177.827 153.273L285.396 49.714L318.925 17.4349L337.035 0H334.853L317.834 16.3846L210.338 119.874L176.736 152.223L69.2398 255.712L39.9292 284H42.0384L144.298 185.552Z" fill="#0C0C0C"/>
<path d="M76.7312 262.924L184.3 159.435L217.829 127.156L325.326 23.5966L349.836 0H347.727L324.235 22.5463L216.738 126.106L183.209 158.385L149.608 190.664L52.73 284H54.9119L76.7312 262.924Z" fill="#0C0C0C"/>
<path d="M157.099 197.946L190.701 165.597L298.197 62.1075L331.726 29.8284L359 3.57099V1.4704L330.708 28.7781L297.106 61.0572L223.139 132.267L189.61 164.546L156.081 196.895L82.1134 268.105L65.6035 284H67.7127L157.099 197.946Z" fill="#0C0C0C"/>
<path d="M80.5857 284L89.6044 275.318L197.101 171.758L230.63 139.479L338.199 35.9901L359 15.8945V13.8639L337.108 34.9398L303.579 67.2189L196.01 170.778L88.5134 274.267L78.4038 284H80.5857Z" fill="#0C0C0C"/>
<path d="M169.972 210.269L203.501 177.99L311.07 74.431L344.599 42.1519L359 28.288V26.1874L343.508 41.1016L309.979 73.4507L202.483 176.94L168.881 209.219L91.2773 284H93.3865L169.972 210.269Z" fill="#0C0C0C"/>
<path d="M182.845 222.663L216.374 190.314L323.871 86.8245L357.472 54.5454L359 53.0049V50.9044L356.381 53.4951L322.78 85.7742L215.283 189.263L181.754 221.612L116.951 284H119.133L182.845 222.663Z" fill="#0C0C0C"/>
<path d="M202.047 241.148L235.648 208.869L343.145 105.38L359 90.0454V87.8748L338.562 107.55L305.034 139.829L271.432 172.178L197.464 243.389L163.936 275.668L155.281 284H157.608L202.047 241.148Z" fill="#0C0C0C"/>
<path d="M131.934 284L222.775 196.475L330.271 92.9862L359 65.3284V63.2979L255.286 163.146L221.684 195.495L129.752 284H131.934Z" fill="#0C0C0C"/>
<path d="M88.1499 202.707L121.679 170.358L229.175 66.8688L298.633 0H296.524L261.686 33.5394L228.157 65.8185L194.555 98.1676L120.588 169.378L87.0589 201.657L53.53 233.936L1.52734 284H3.70927L88.1499 202.707Z" fill="#0C0C0C"/>
<path d="M39.8566 0L29.3106 10.2229L0 38.4408V40.4714L30.3288 11.2732L42.0385 0H39.8566Z" fill="#0C0C0C"/>
<path d="M35.7109 16.3846L2.1092 48.7337L0 50.7643V52.8649L3.20016 49.714L36.8019 17.4349L54.9119 0H52.7299L35.7109 16.3846Z" fill="#0C0C0C"/>
<path d="M0 3.571L3.70928 0H1.52735L0 1.47041V3.571Z" fill="#0C0C0C"/>
<path d="M0 15.8945L16.5099 0H14.4007L0 13.8639V15.8945Z" fill="#0C0C0C"/>
<path d="M27.0559 0L22.8375 4.06114L0 26.0473V28.288L29.3833 0H27.0559Z" fill="#0C0C0C"/>
<path d="M3.20016 185.552L36.8019 153.273L144.298 49.714L177.827 17.4349L195.937 0H193.828L176.736 16.3846L69.2398 119.874L35.7109 152.223L0 186.603V188.633L3.20016 185.552Z" fill="#0C0C0C"/>
<path d="M63.9305 114.762L171.427 11.2732L183.136 0H180.955L170.336 10.2229L136.807 42.502L62.8395 113.712L29.3106 146.061L0 174.209V176.31L30.3288 147.041L63.9305 114.762Z" fill="#0C0C0C"/>
<path d="M27.8559 73.4507L0 100.198V102.299L28.8742 74.431L62.4759 42.1519L106.26 0H104.078L61.3849 41.1016L27.8559 73.4507Z" fill="#0C0C0C"/>
<path d="M0 77.5818L16.0735 62.1075L49.6025 29.8284L80.5859 0H78.404L48.5115 28.7781L14.9826 61.0572L0 75.4812V77.5818Z" fill="#0C0C0C"/>
<path d="M30.329 282.88L63.9307 250.601L171.427 147.041L204.956 114.762L312.525 11.2732L324.162 0H322.053L311.434 10.2229L277.832 42.502L170.336 146.061L136.807 178.34L29.3108 281.829L27.0562 284H29.2381L30.329 282.88Z" fill="#0C0C0C"/>
<path d="M16.0735 197.946L49.6025 165.597L157.099 62.1075L190.701 29.8284L221.611 0H219.502L189.61 28.7781L156.081 61.0572L48.5115 164.546L14.9826 196.895L0 211.32V213.35L16.0735 197.946Z" fill="#0C0C0C"/>
<path d="M41.7476 222.663L75.2765 190.314L182.846 86.8244L216.375 54.5454L249.903 22.1962L272.959 0H270.85L248.813 21.146L215.284 53.4951L181.755 85.7741L107.787 156.984L74.1855 189.263L40.6566 221.612L0 260.753V262.854L41.7476 222.663Z" fill="#0C0C0C"/>
<path d="M61.0214 241.148L94.5503 208.869L202.047 105.38L235.648 73.0306L269.177 40.7515L306.197 5.18146L311.507 0H309.179L305.034 4.06114L197.465 107.55L163.936 139.829L56.4393 243.389L22.8376 275.668L14.2554 284H16.5828L61.0214 241.148Z" fill="#0C0C0C"/>
<path d="M0 201.027L43.2022 159.435L76.7311 127.156L150.699 55.9458L184.3 23.5966L208.811 0H206.629L183.209 22.5463L149.608 54.8955L75.6402 126.106L42.1112 158.385L0 198.926V201.027Z" fill="#0C0C0C"/>
<path d="M56.0028 171.758L89.6045 139.479L197.101 35.9901L230.63 3.64102L234.485 0H232.303L229.612 2.66075L196.01 34.9398L162.481 67.2189L88.5135 138.429L54.9846 170.778L0 223.643V225.744L22.4739 204.107L56.0028 171.758Z" fill="#0C0C0C"/>
<path d="M62.4759 177.99L169.972 74.431L203.501 42.1519L247.285 0H245.176L236.012 8.82248L202.483 41.1016L168.881 73.4507L61.3849 176.94L27.8559 209.219L0 236.036V238.067L28.8742 210.269L62.4759 177.99Z" fill="#0C0C0C"/>
<path d="M0 273.077V275.177L48.1479 228.824L81.7496 196.475L115.279 164.196L189.246 92.9862L222.775 60.7071L256.377 28.358L285.833 0H283.651L221.684 59.6568L114.188 163.146L80.6586 195.495L0 273.077Z" fill="#0C0C0C"/>
<path d="M718 38.5809L708.909 47.3333L601.412 150.822L567.883 183.102L463.078 284H465.26L568.974 184.152L602.503 151.873L710 48.3136L718 40.6114V38.5809Z" fill="#0C0C0C"/>
<path d="M619.159 0H616.977L567.883 47.3333L460.387 150.822L426.785 183.102L359 248.36V250.461L427.876 184.152L461.405 151.873L535.373 80.6627L568.974 48.3136L602.503 16.0345L619.159 0Z" fill="#0C0C0C"/>
<path d="M554.646 234.986L588.175 202.707L621.777 170.358L695.744 99.1479L718 77.7219V75.6213L620.686 169.378L587.157 201.657L553.555 233.936L501.625 284H503.807L554.646 234.986Z" fill="#0C0C0C"/>
<path d="M475.951 0L460.387 14.9842L426.785 47.3333L359 112.592V114.622L427.876 48.3136L478.061 0H475.951Z" fill="#0C0C0C"/>
<path d="M439.659 59.6568L406.057 91.9359L359 137.309V139.339L407.148 92.9862L440.75 60.7071L474.279 28.358L503.735 0H501.625L473.188 27.3777L439.659 59.6568Z" fill="#0C0C0C"/>
<path d="M359 63.1578V65.1884L402.202 23.5966L426.712 0H424.531L401.111 22.5463L359 63.1578Z" fill="#0C0C0C"/>
<path d="M447.514 2.66075L413.985 34.9398L359 87.8747V89.9053L415.003 35.9901L448.605 3.64102L452.387 0H450.277L447.514 2.66075Z" fill="#0C0C0C"/>
<path d="M466.787 21.146L433.186 53.4951L399.657 85.7741L359 124.915V127.016L400.748 86.8244L434.277 54.5454L467.878 22.1962L490.934 0H488.752L466.787 21.146Z" fill="#0C0C0C"/>
<path d="M527.154 0L522.936 4.06114L415.439 107.55L381.838 139.829L359 161.886V164.056L420.021 105.38L453.55 73.0306L487.079 40.7515L529.409 0H527.154Z" fill="#0C0C0C"/>
<path d="M446.059 65.8185L359 149.632V151.733L447.15 66.8688L516.608 0H514.426L446.059 65.8185Z" fill="#0C0C0C"/>
<path d="M503.298 185.552L536.827 153.273L644.396 49.714L677.925 17.4349L696.035 0H693.853L676.834 16.3846L569.338 119.874L535.736 152.223L428.24 255.712L398.929 284H401.038L503.298 185.552Z" fill="#0C0C0C"/>
<path d="M435.731 262.924L543.3 159.435L576.829 127.156L684.326 23.5966L708.836 0H706.727L683.235 22.5463L575.738 126.106L542.209 158.385L508.608 190.664L411.73 284H413.912L435.731 262.924Z" fill="#0C0C0C"/>
<path d="M516.099 197.946L549.701 165.597L657.197 62.1075L690.726 29.8284L718 3.57099V1.4704L689.708 28.7781L656.106 61.0572L582.139 132.267L548.61 164.546L515.081 196.895L441.113 268.105L424.604 284H426.713L516.099 197.946Z" fill="#0C0C0C"/>
<path d="M439.586 284L448.604 275.318L556.101 171.758L589.63 139.479L697.199 35.9901L718 15.8945V13.8639L696.108 34.9398L662.579 67.2189L555.01 170.778L447.513 274.267L437.404 284H439.586Z" fill="#0C0C0C"/>
<path d="M528.972 210.269L562.501 177.99L670.07 74.431L703.599 42.1519L718 28.288V26.1874L702.508 41.1016L668.979 73.4507L561.483 176.94L527.881 209.219L450.277 284H452.387L528.972 210.269Z" fill="#0C0C0C"/>
<path d="M541.845 222.663L575.374 190.314L682.871 86.8245L716.472 54.5454L718 53.0049V50.9044L715.381 53.4951L681.78 85.7742L574.283 189.263L540.754 221.612L475.951 284H478.133L541.845 222.663Z" fill="#0C0C0C"/>
<path d="M490.934 284L581.775 196.475L689.271 92.9862L718 65.3284V63.2979L614.286 163.146L580.684 195.495L488.752 284H490.934Z" fill="#0C0C0C"/>
<path d="M447.15 202.707L480.679 170.358L588.175 66.8688L657.633 0H655.524L620.686 33.5394L587.157 65.8185L553.555 98.1676L479.588 169.378L446.059 201.657L412.53 233.936L360.527 284H362.709L447.15 202.707Z" fill="#0C0C0C"/>
<path d="M398.857 0L388.311 10.2229L359 38.4408V40.4714L389.329 11.2732L401.038 0H398.857Z" fill="#0C0C0C"/>
<path d="M394.711 16.3846L361.109 48.7337L359 50.7643V52.8649L362.2 49.714L395.802 17.4349L413.912 0H411.73L394.711 16.3846Z" fill="#0C0C0C"/>
<path d="M359 3.571L362.709 0H360.527L359 1.47041V3.571Z" fill="#0C0C0C"/>
<path d="M359 15.8945L375.51 0H373.401L359 13.8639V15.8945Z" fill="#0C0C0C"/>
<path d="M386.056 0L381.838 4.06114L359 26.0473V28.288L388.383 0H386.056Z" fill="#0C0C0C"/>
<path d="M362.2 185.552L395.802 153.273L503.298 49.714L536.827 17.4349L554.937 0H552.828L535.736 16.3846L428.24 119.874L394.711 152.223L359 186.603V188.633L362.2 185.552Z" fill="#0C0C0C"/>
<path d="M422.93 114.762L530.427 11.2732L542.136 0H539.955L529.336 10.2229L495.807 42.502L421.84 113.712L388.311 146.061L359 174.209V176.31L389.329 147.041L422.93 114.762Z" fill="#0C0C0C"/>
<path d="M386.856 73.4507L359 100.198V102.299L387.874 74.431L421.476 42.1519L465.26 0H463.078L420.385 41.1016L386.856 73.4507Z" fill="#0C0C0C"/>
<path d="M359 77.5818L375.074 62.1075L408.602 29.8284L439.586 0H437.404L407.512 28.7781L373.983 61.0572L359 75.4812V77.5818Z" fill="#0C0C0C"/>
<path d="M389.329 282.88L422.931 250.601L530.427 147.041L563.956 114.762L671.525 11.2732L683.162 0H681.053L670.434 10.2229L636.832 42.502L529.336 146.061L495.807 178.34L388.311 281.829L386.056 284H388.238L389.329 282.88Z" fill="#0C0C0C"/>
<path d="M375.074 197.946L408.602 165.597L516.099 62.1075L549.701 29.8284L580.611 0H578.502L548.61 28.7781L515.081 61.0572L407.512 164.546L373.983 196.895L359 211.32V213.35L375.074 197.946Z" fill="#0C0C0C"/>
<path d="M400.748 222.663L434.277 190.314L541.846 86.8244L575.375 54.5454L608.903 22.1962L631.959 0H629.85L607.813 21.146L574.284 53.4951L540.755 85.7741L466.787 156.984L433.186 189.263L399.657 221.612L359 260.753V262.854L400.748 222.663Z" fill="#0C0C0C"/>
<path d="M420.021 241.148L453.55 208.869L561.047 105.38L594.648 73.0306L628.177 40.7515L665.197 5.18146L670.507 0H668.179L664.034 4.06114L556.465 107.55L522.936 139.829L415.439 243.389L381.838 275.668L373.255 284H375.583L420.021 241.148Z" fill="#0C0C0C"/>
<path d="M359 201.027L402.202 159.435L435.731 127.156L509.699 55.9458L543.3 23.5966L567.811 0H565.629L542.209 22.5463L508.608 54.8955L434.64 126.106L401.111 158.385L359 198.926V201.027Z" fill="#0C0C0C"/>
<path d="M415.003 171.758L448.605 139.479L556.101 35.9901L589.63 3.64102L593.485 0H591.303L588.612 2.66075L555.01 34.9398L521.481 67.2189L447.514 138.429L413.985 170.778L359 223.643V225.744L381.474 204.107L415.003 171.758Z" fill="#0C0C0C"/>
<path d="M421.476 177.99L528.972 74.431L562.501 42.1519L606.285 0H604.176L595.012 8.82248L561.483 41.1016L527.881 73.4507L420.385 176.94L386.856 209.219L359 236.036V238.067L387.874 210.269L421.476 177.99Z" fill="#0C0C0C"/>
<path d="M359 273.077V275.177L407.148 228.824L440.75 196.475L474.279 164.196L548.246 92.9862L581.775 60.7071L615.377 28.358L644.833 0H642.651L580.684 59.6568L473.188 163.146L439.659 195.495L359 273.077Z" fill="#0C0C0C"/>
</g>
<defs>
<clipPath id="clip0">
<rect width="612" height="165" fill="white"/>
</clipPath>
</defs>
</svg>
