<svg width="427" height="184" viewBox="0 0 427 184" fill="none" xmlns="http://www.w3.org/2000/svg">
<g clip-path="url(#clip0)">
<path d="M149.351 43.9789L160.273 33.0582L171.406 44.1905L174.158 41.4392L163.024 30.3069L173.946 19.3863L171.237 16.6349L160.273 27.5979L149.52 16.8466L146.811 19.5556L157.563 30.3069L146.599 41.2699L149.351 43.9789Z" fill="#48403B" fill-opacity="0.3"/>
<path d="M149.351 104L160.273 93.0371L171.406 104.169L174.158 101.418L163.024 90.3281L173.946 79.3651L171.237 76.6561L160.273 87.5768L149.52 76.8254L146.811 79.5768L157.563 90.3281L146.599 101.249L149.351 104Z" fill="#48403B"/>
<path d="M89.3649 43.9789L100.287 33.0582L111.42 44.1905L114.13 41.4392L103.039 30.3069L113.96 19.3863L111.209 16.6349L100.287 27.5979L89.5343 16.8466L86.7826 19.5556L97.5352 30.3069L86.6133 41.2699L89.3649 43.9789Z" fill="#48403B" fill-opacity="0.3"/>
<path d="M103.039 90.3281L113.96 79.3651L111.209 76.6561L100.287 87.5768L89.5343 76.8254L86.7826 79.5768L97.5352 90.3281L86.6133 101.249L89.3649 104L100.287 93.0371L111.42 104.169L114.13 101.418L103.039 90.3281Z" fill="#DF172D"/>
<path d="M53.9746 19.3863L51.2229 16.6349L40.301 27.5979L29.5484 16.8466L26.7968 19.5556L37.5494 30.3069L26.6274 41.2699L29.3368 43.9789L40.301 33.0582L51.4346 44.1905L54.1439 41.4392L43.0103 30.3069L53.9746 19.3863Z" fill="#48403B" fill-opacity="0.3"/>
<path d="M43.0103 90.3281L53.9746 79.3651L51.2229 76.6561L40.301 87.5768L29.5484 76.8254L26.7968 79.5768L37.5494 90.3281L26.6274 101.249L29.3368 104L40.301 93.0371L51.4346 104.169L54.1439 101.418L43.0103 90.3281Z" fill="#48403B"/>
<path d="M329.351 43.9789L340.273 33.0582L351.406 44.1905L354.158 41.4392L343.024 30.3069L353.946 19.3863L351.237 16.6349L340.273 27.5979L329.52 16.8466L326.811 19.5556L337.563 30.3069L326.599 41.2699L329.351 43.9789Z" fill="#48403B" fill-opacity="0.3"/>
<path d="M329.351 104L340.273 93.0371L351.406 104.169L354.158 101.418L343.024 90.3281L353.946 79.3651L351.237 76.6561L340.273 87.5768L329.52 76.8254L326.811 79.5768L337.563 90.3281L326.599 101.249L329.351 104Z" fill="#48403B"/>
<path d="M269.365 43.9789L280.287 33.0582L291.42 44.1905L294.13 41.4392L283.039 30.3069L293.96 19.3863L291.209 16.6349L280.287 27.5979L269.534 16.8466L266.783 19.5556L277.535 30.3069L266.613 41.2699L269.365 43.9789Z" fill="#48403B" fill-opacity="0.3"/>
<path d="M283.039 90.3281L293.96 79.3651L291.209 76.6561L280.287 87.5768L269.534 76.8254L266.783 79.5768L277.535 90.3281L266.613 101.249L269.365 104L280.287 93.0371L291.42 104.169L294.13 101.418L283.039 90.3281Z" fill="#48403B"/>
<path d="M233.975 19.3863L231.223 16.6349L220.301 27.5979L209.548 16.8466L206.797 19.5556L217.549 30.3069L206.627 41.2699L209.337 43.9789L220.301 33.0582L231.435 44.1905L234.144 41.4392L223.01 30.3069L233.975 19.3863Z" fill="#48403B" fill-opacity="0.3"/>
<path d="M223.01 90.3281L233.975 79.3651L231.223 76.6561L220.301 87.5768L209.548 76.8254L206.797 79.5768L217.549 90.3281L206.627 101.249L209.337 104L220.301 93.0371L231.435 104.169L234.144 101.418L223.01 90.3281Z" fill="#48403B"/>
<path d="M329.351 163.979L340.273 153.058L351.406 164.191L354.158 161.439L343.024 150.307L353.946 139.386L351.237 136.635L340.273 147.598L329.52 136.847L326.811 139.556L337.563 150.307L326.599 161.27L329.351 163.979Z" fill="#48403B" fill-opacity="0.3"/>
<path d="M269.365 163.979L280.287 153.058L291.42 164.191L294.13 161.439L283.039 150.307L293.96 139.386L291.209 136.635L280.287 147.598L269.534 136.847L266.783 139.556L277.535 150.307L266.613 161.27L269.365 163.979Z" fill="#48403B" fill-opacity="0.3"/>
<path d="M233.975 139.386L231.223 136.635L220.301 147.598L209.548 136.847L206.797 139.556L217.549 150.307L206.627 161.27L209.337 163.979L220.301 153.058L231.435 164.191L234.144 161.439L223.01 150.307L233.975 139.386Z" fill="#48403B" fill-opacity="0.3"/>
<path d="M149.351 163.979L160.273 153.058L171.406 164.191L174.158 161.439L163.024 150.307L173.946 139.386L171.237 136.635L160.273 147.598L149.52 136.847L146.811 139.556L157.563 150.307L146.599 161.27L149.351 163.979Z" fill="#48403B" fill-opacity="0.3"/>
<path d="M89.3649 163.979L100.287 153.058L111.42 164.191L114.13 161.439L103.039 150.307L113.96 139.386L111.209 136.635L100.287 147.598L89.5343 136.847L86.7826 139.556L97.5352 150.307L86.6133 161.27L89.3649 163.979Z" fill="#48403B" fill-opacity="0.3"/>
<path d="M53.9746 139.386L51.2229 136.635L40.301 147.598L29.5484 136.847L26.7968 139.556L37.5494 150.307L26.6274 161.27L29.3368 163.979L40.301 153.058L51.4346 164.191L54.1439 161.439L43.0103 150.307L53.9746 139.386Z" fill="#48403B" fill-opacity="0.3"/>
<path d="M413.975 19.3863L411.223 16.6349L400.301 27.5979L389.548 16.8466L386.797 19.5556L397.549 30.3069L386.627 41.2699L389.337 43.9789L400.301 33.0582L411.435 44.1905L414.144 41.4392L403.01 30.3069L413.975 19.3863Z" fill="#48403B" fill-opacity="0.3"/>
<path d="M403.01 90.3281L413.975 79.3651L411.223 76.6561L400.301 87.5768L389.548 76.8254L386.797 79.5768L397.549 90.3281L386.627 101.249L389.337 104L400.301 93.0371L411.435 104.169L414.144 101.418L403.01 90.3281Z" fill="#48403B"/>
<path d="M413.975 139.386L411.223 136.635L400.301 147.598L389.548 136.847L386.797 139.556L397.549 150.307L386.627 161.27L389.337 163.979L400.301 153.058L411.435 164.191L414.144 161.439L403.01 150.307L413.975 139.386Z" fill="#48403B" fill-opacity="0.3"/>
</g>
<defs>
<clipPath id="clip0">
<rect width="909" height="184" fill="white"/>
</clipPath>
</defs>
</svg>
