<svg width="296" height="182" viewBox="0 0 296 182" fill="none" xmlns="http://www.w3.org/2000/svg">
<g clip-path="url(#clip0)">
<path d="M75.3508 43.9788L86.2727 33.0582L97.4063 44.1904L100.158 41.4391L89.0243 30.3068L99.9462 19.3862L97.2369 16.6349L86.2727 27.5978L75.5201 16.8465L72.8108 19.5555L83.5634 30.3068L72.5991 41.2698L75.3508 43.9788Z" fill="#48403B" fill-opacity="0.3"/>
<path d="M75.3508 104L86.2727 93.0369L97.4063 104.169L100.158 101.418L89.0243 90.328L99.9462 79.365L97.2369 76.656L86.2727 87.5766L75.5201 76.8253L72.8108 79.5766L83.5634 90.328L72.5991 101.249L75.3508 104Z" fill="#48403B" fill-opacity="0.3"/>
<path d="M15.3649 43.9788L26.2869 33.0582L37.4205 44.1904L40.1298 41.4391L29.0385 30.3068L39.9604 19.3862L37.2088 16.6349L26.2869 27.5978L15.5343 16.8465L12.7826 19.5555L23.5352 30.3068L12.6133 41.2698L15.3649 43.9788Z" fill="#48403B" fill-opacity="0.3"/>
<path d="M29.0385 90.328L39.9604 79.365L37.2088 76.656L26.2869 87.5766L15.5343 76.8253L12.7826 79.5766L23.5352 90.328L12.6133 101.249L15.3649 104L26.2869 93.0369L37.4205 104.169L40.1298 101.418L29.0385 90.328Z" fill="#48403B" fill-opacity="0.3"/>
<path d="M255.351 43.9788L266.273 33.0582L277.406 44.1904L280.158 41.4391L269.024 30.3068L279.946 19.3862L277.237 16.6349L266.273 27.5978L255.52 16.8465L252.811 19.5555L263.563 30.3068L252.599 41.2698L255.351 43.9788Z" fill="#48403B" fill-opacity="0.3"/>
<path d="M255.351 104L266.273 93.0369L277.406 104.169L280.158 101.418L269.024 90.328L279.946 79.365L277.237 76.656L266.273 87.5766L255.52 76.8253L252.811 79.5766L263.563 90.328L252.599 101.249L255.351 104Z" fill="#48403B" fill-opacity="0.3"/>
<path d="M195.365 43.9788L206.287 33.0582L217.42 44.1904L220.13 41.4391L209.039 30.3068L219.96 19.3862L217.209 16.6349L206.287 27.5978L195.534 16.8465L192.783 19.5555L203.535 30.3068L192.613 41.2698L195.365 43.9788Z" fill="#48403B" fill-opacity="0.3"/>
<path d="M209.039 90.328L219.96 79.365L217.209 76.656L206.287 87.5766L195.534 76.8253L192.783 79.5766L203.535 90.328L192.613 101.249L195.365 104L206.287 93.0369L217.42 104.169L220.13 101.418L209.039 90.328Z" fill="#48403B" fill-opacity="0.3"/>
<path d="M159.975 19.3862L157.223 16.6349L146.301 27.5978L135.548 16.8465L132.797 19.5555L143.549 30.3068L132.627 41.2698L135.337 43.9788L146.301 33.0582L157.435 44.1904L160.144 41.4391L149.01 30.3068L159.975 19.3862Z" fill="#48403B" fill-opacity="0.3"/>
<path d="M149.01 90.328L159.975 79.365L157.223 76.656L146.301 87.5766L135.548 76.8253L132.797 79.5766L143.549 90.328L132.627 101.249L135.337 104L146.301 93.0369L157.435 104.169L160.144 101.418L149.01 90.328Z" fill="#48403B" fill-opacity="0.3"/>
<path d="M255.351 163.979L266.273 153.058L277.406 164.19L280.158 161.439L269.024 150.307L279.946 139.386L277.237 136.635L266.273 147.598L255.52 136.847L252.811 139.556L263.563 150.307L252.599 161.27L255.351 163.979Z" fill="#48403B" fill-opacity="0.3"/>
<path d="M195.365 163.979L206.287 153.058L217.42 164.19L220.13 161.439L209.039 150.307L219.96 139.386L217.209 136.635L206.287 147.598L195.534 136.847L192.783 139.556L203.535 150.307L192.613 161.27L195.365 163.979Z" fill="#48403B" fill-opacity="0.3"/>
<path d="M159.975 139.386L157.223 136.635L146.301 147.598L135.548 136.847L132.797 139.556L143.549 150.307L132.627 161.27L135.337 163.979L146.301 153.058L157.435 164.19L160.144 161.439L149.01 150.307L159.975 139.386Z" fill="#48403B" fill-opacity="0.3"/>
<path d="M75.3508 163.979L86.2727 153.058L97.4063 164.19L100.158 161.439L89.0243 150.307L99.9462 139.386L97.2369 136.635L86.2727 147.598L75.5201 136.847L72.8108 139.556L83.5634 150.307L72.5991 161.27L75.3508 163.979Z" fill="#48403B" fill-opacity="0.3"/>
<path d="M15.3649 163.979L26.2869 153.058L37.4205 164.19L40.1298 161.439L29.0385 150.307L39.9604 139.386L37.2088 136.635L26.2869 147.598L15.5343 136.847L12.7826 139.556L23.5352 150.307L12.6133 161.27L15.3649 163.979Z" fill="#48403B" fill-opacity="0.3"/>
</g>
<defs>
<clipPath id="clip0">
<rect width="730" height="182" fill="white" transform="translate(-434)"/>
</clipPath>
</defs>
</svg>
