<svg width="738" height="190" viewBox="0 0 738 190" fill="none" xmlns="http://www.w3.org/2000/svg">
<g clip-path="url(#clip0)">
<path d="M149.351 43.9788L160.273 33.0582L171.406 44.1904L174.158 41.4391L163.024 30.3068L173.946 19.3862L171.237 16.6349L160.273 27.5978L149.52 16.8465L146.811 19.5555L157.563 30.3068L146.599 41.2698L149.351 43.9788Z" fill="#48403B" fill-opacity="0.3"/>
<path d="M149.351 104L160.273 93.0369L171.406 104.169L174.158 101.418L163.024 90.328L173.946 79.365L171.237 76.656L160.273 87.5766L149.52 76.8253L146.811 79.5766L157.563 90.328L146.599 101.249L149.351 104Z" fill="#48403B" fill-opacity="0.3"/>
<path d="M89.3649 43.9788L100.287 33.0582L111.42 44.1904L114.13 41.4391L103.039 30.3068L113.96 19.3862L111.209 16.6349L100.287 27.5978L89.5343 16.8465L86.7826 19.5555L97.5352 30.3068L86.6133 41.2698L89.3649 43.9788Z" fill="#48403B" fill-opacity="0.3"/>
<path d="M103.039 90.328L113.96 79.365L111.209 76.656L100.287 87.5766L89.5343 76.8253L86.7826 79.5766L97.5352 90.328L86.6133 101.249L89.3649 104L100.287 93.0369L111.42 104.169L114.13 101.418L103.039 90.328Z" fill="#48403B" fill-opacity="0.3"/>
<path d="M53.9746 19.3862L51.2229 16.6349L40.301 27.5978L29.5484 16.8465L26.7968 19.5555L37.5494 30.3068L26.6274 41.2698L29.3368 43.9788L40.301 33.0582L51.4346 44.1904L54.1439 41.4391L43.0103 30.3068L53.9746 19.3862Z" fill="#48403B" fill-opacity="0.3"/>
<path d="M43.0103 90.328L53.9746 79.365L51.2229 76.656L40.301 87.5766L29.5484 76.8253L26.7968 79.5766L37.5494 90.328L26.6274 101.249L29.3368 104L40.301 93.0369L51.4346 104.169L54.1439 101.418L43.0103 90.328Z" fill="#48403B" fill-opacity="0.3"/>
<path d="M329.351 43.9788L340.273 33.0582L351.406 44.1904L354.158 41.4391L343.024 30.3068L353.946 19.3862L351.237 16.6349L340.273 27.5978L329.52 16.8465L326.811 19.5555L337.563 30.3068L326.599 41.2698L329.351 43.9788Z" fill="#48403B" fill-opacity="0.3"/>
<path d="M329.351 104L340.273 93.0369L351.406 104.169L354.158 101.418L343.024 90.328L353.946 79.365L351.237 76.656L340.273 87.5766L329.52 76.8253L326.811 79.5766L337.563 90.328L326.599 101.249L329.351 104Z" fill="#48403B" fill-opacity="0.3"/>
<path d="M269.365 43.9788L280.287 33.0582L291.42 44.1904L294.13 41.4391L283.039 30.3068L293.96 19.3862L291.209 16.6349L280.287 27.5978L269.534 16.8465L266.783 19.5555L277.535 30.3068L266.613 41.2698L269.365 43.9788Z" fill="#48403B" fill-opacity="0.3"/>
<path d="M283.039 90.328L293.96 79.365L291.209 76.656L280.287 87.5766L269.534 76.8253L266.783 79.5766L277.535 90.328L266.613 101.249L269.365 104L280.287 93.0369L291.42 104.169L294.13 101.418L283.039 90.328Z" fill="#48403B" fill-opacity="0.3"/>
<path d="M233.975 19.3862L231.223 16.6349L220.301 27.5978L209.548 16.8465L206.797 19.5555L217.549 30.3068L206.627 41.2698L209.337 43.9788L220.301 33.0582L231.435 44.1904L234.144 41.4391L223.01 30.3068L233.975 19.3862Z" fill="#48403B" fill-opacity="0.3"/>
<path d="M223.01 90.328L233.975 79.365L231.223 76.656L220.301 87.5766L209.548 76.8253L206.797 79.5766L217.549 90.328L206.627 101.249L209.337 104L220.301 93.0369L231.435 104.169L234.144 101.418L223.01 90.328Z" fill="#48403B" fill-opacity="0.3"/>
<path d="M329.351 163.979L340.273 153.058L351.406 164.19L354.158 161.439L343.024 150.307L353.946 139.386L351.237 136.635L340.273 147.598L329.52 136.847L326.811 139.556L337.563 150.307L326.599 161.27L329.351 163.979Z" fill="#48403B" fill-opacity="0.3"/>
<path d="M269.365 163.979L280.287 153.058L291.42 164.19L294.13 161.439L283.039 150.307L293.96 139.386L291.209 136.635L280.287 147.598L269.534 136.847L266.783 139.556L277.535 150.307L266.613 161.27L269.365 163.979Z" fill="#48403B" fill-opacity="0.3"/>
<path d="M233.975 139.386L231.223 136.635L220.301 147.598L209.548 136.847L206.797 139.556L217.549 150.307L206.627 161.27L209.337 163.979L220.301 153.058L231.435 164.19L234.144 161.439L223.01 150.307L233.975 139.386Z" fill="#48403B" fill-opacity="0.3"/>
<path d="M149.351 163.979L160.273 153.058L171.406 164.19L174.158 161.439L163.024 150.307L173.946 139.386L171.237 136.635L160.273 147.598L149.52 136.847L146.811 139.556L157.563 150.307L146.599 161.27L149.351 163.979Z" fill="#48403B" fill-opacity="0.3"/>
<path d="M89.3649 163.979L100.287 153.058L111.42 164.19L114.13 161.439L103.039 150.307L113.96 139.386L111.209 136.635L100.287 147.598L89.5343 136.847L86.7826 139.556L97.5352 150.307L86.6133 161.27L89.3649 163.979Z" fill="#48403B"/>
<path d="M53.9746 139.386L51.2229 136.635L40.301 147.598L29.5484 136.847L26.7968 139.556L37.5494 150.307L26.6274 161.27L29.3368 163.979L40.301 153.058L51.4346 164.19L54.1439 161.439L43.0103 150.307L53.9746 139.386Z" fill="#A09B87"/>
<path d="M509.351 43.9788L520.273 33.0582L531.406 44.1904L534.158 41.4391L523.024 30.3068L533.946 19.3862L531.237 16.6349L520.273 27.5978L509.52 16.8465L506.811 19.5555L517.563 30.3068L506.599 41.2698L509.351 43.9788Z" fill="#48403B" fill-opacity="0.3"/>
<path d="M509.351 104L520.273 93.0369L531.406 104.169L534.158 101.418L523.024 90.328L533.946 79.365L531.237 76.656L520.273 87.5766L509.52 76.8253L506.811 79.5766L517.563 90.328L506.599 101.249L509.351 104Z" fill="#48403B" fill-opacity="0.3"/>
<path d="M449.365 43.9788L460.287 33.0582L471.42 44.1904L474.13 41.4391L463.039 30.3068L473.96 19.3862L471.209 16.6349L460.287 27.5978L449.534 16.8465L446.783 19.5555L457.535 30.3068L446.613 41.2698L449.365 43.9788Z" fill="#48403B" fill-opacity="0.3"/>
<path d="M463.039 90.328L473.96 79.365L471.209 76.656L460.287 87.5766L449.534 76.8253L446.783 79.5766L457.535 90.328L446.613 101.249L449.365 104L460.287 93.0369L471.42 104.169L474.13 101.418L463.039 90.328Z" fill="#48403B" fill-opacity="0.3"/>
<path d="M413.975 19.3862L411.223 16.6349L400.301 27.5978L389.548 16.8465L386.797 19.5555L397.549 30.3068L386.627 41.2698L389.337 43.9788L400.301 33.0582L411.435 44.1904L414.144 41.4391L403.01 30.3068L413.975 19.3862Z" fill="#48403B" fill-opacity="0.3"/>
<path d="M403.01 90.328L413.975 79.365L411.223 76.656L400.301 87.5766L389.548 76.8253L386.797 79.5766L397.549 90.328L386.627 101.249L389.337 104L400.301 93.0369L411.435 104.169L414.144 101.418L403.01 90.328Z" fill="#48403B" fill-opacity="0.3"/>
<path d="M689.351 43.9788L700.273 33.0582L711.406 44.1904L714.158 41.4391L703.024 30.3068L713.946 19.3862L711.237 16.6349L700.273 27.5978L689.52 16.8465L686.811 19.5555L697.563 30.3068L686.599 41.2698L689.351 43.9788Z" fill="#48403B" fill-opacity="0.3"/>
<path d="M689.351 104L700.273 93.0369L711.406 104.169L714.158 101.418L703.024 90.328L713.946 79.365L711.237 76.656L700.273 87.5766L689.52 76.8253L686.811 79.5766L697.563 90.328L686.599 101.249L689.351 104Z" fill="#48403B" fill-opacity="0.3"/>
<path d="M629.365 43.9788L640.287 33.0582L651.42 44.1904L654.13 41.4391L643.039 30.3068L653.96 19.3862L651.209 16.6349L640.287 27.5978L629.534 16.8465L626.783 19.5555L637.535 30.3068L626.613 41.2698L629.365 43.9788Z" fill="#48403B" fill-opacity="0.3"/>
<path d="M643.039 90.328L653.96 79.365L651.209 76.656L640.287 87.5766L629.534 76.8253L626.783 79.5766L637.535 90.328L626.613 101.249L629.365 104L640.287 93.0369L651.42 104.169L654.13 101.418L643.039 90.328Z" fill="#48403B" fill-opacity="0.3"/>
<path d="M593.975 19.3862L591.223 16.6349L580.301 27.5978L569.548 16.8465L566.797 19.5555L577.549 30.3068L566.627 41.2698L569.337 43.9788L580.301 33.0582L591.435 44.1904L594.144 41.4391L583.01 30.3068L593.975 19.3862Z" fill="#48403B" fill-opacity="0.3"/>
<path d="M583.01 90.328L593.975 79.365L591.223 76.656L580.301 87.5766L569.548 76.8253L566.797 79.5766L577.549 90.328L566.627 101.249L569.337 104L580.301 93.0369L591.435 104.169L594.144 101.418L583.01 90.328Z" fill="#48403B" fill-opacity="0.3"/>
<path d="M689.351 163.979L700.273 153.058L711.406 164.19L714.158 161.439L703.024 150.307L713.946 139.386L711.237 136.635L700.273 147.598L689.52 136.847L686.811 139.556L697.563 150.307L686.599 161.27L689.351 163.979Z" fill="#48403B" fill-opacity="0.3"/>
<path d="M629.365 163.979L640.287 153.058L651.42 164.19L654.13 161.439L643.039 150.307L653.96 139.386L651.209 136.635L640.287 147.598L629.534 136.847L626.783 139.556L637.535 150.307L626.613 161.27L629.365 163.979Z" fill="#48403B" fill-opacity="0.3"/>
<path d="M593.975 139.386L591.223 136.635L580.301 147.598L569.548 136.847L566.797 139.556L577.549 150.307L566.627 161.27L569.337 163.979L580.301 153.058L591.435 164.19L594.144 161.439L583.01 150.307L593.975 139.386Z" fill="#48403B" fill-opacity="0.3"/>
<path d="M509.351 163.979L520.273 153.058L531.406 164.19L534.158 161.439L523.024 150.307L533.946 139.386L531.237 136.635L520.273 147.598L509.52 136.847L506.811 139.556L517.563 150.307L506.599 161.27L509.351 163.979Z" fill="#48403B" fill-opacity="0.3"/>
<path d="M449.365 163.979L460.287 153.058L471.42 164.19L474.13 161.439L463.039 150.307L473.96 139.386L471.209 136.635L460.287 147.598L449.534 136.847L446.783 139.556L457.535 150.307L446.613 161.27L449.365 163.979Z" fill="#48403B" fill-opacity="0.3"/>
<path d="M413.975 139.386L411.223 136.635L400.301 147.598L389.548 136.847L386.797 139.556L397.549 150.307L386.627 161.27L389.337 163.979L400.301 153.058L411.435 164.19L414.144 161.439L403.01 150.307L413.975 139.386Z" fill="#48403B" fill-opacity="0.3"/>
</g>
<defs>
<clipPath id="clip0">
<rect width="824" height="190" fill="white"/>
</clipPath>
</defs>
</svg>
