<svg width="267" height="137" viewBox="0 0 267 137" fill="none" xmlns="http://www.w3.org/2000/svg">
<g clip-path="url(#clip0)">
<path d="M217 38.5808L207.909 47.3333L100.412 150.822L66.8833 183.102L-37.922 284H-35.7401L67.9742 184.152L101.503 151.873L209 48.3136L217 40.6114V38.5808Z" fill="#0C0C0C"/>
<path d="M118.159 0H115.977L66.8833 47.3333L-40.6131 150.822L-74.2148 183.102L-142 248.36V250.461L-73.1238 184.152L-39.5948 151.873L34.3725 80.6627L67.9742 48.3136L101.503 16.0345L118.159 0Z" fill="#0C0C0C"/>
<path d="M75.8292 262.924L183.325 159.435L216.927 127.156L217 127.016V124.915L215.836 126.105L182.235 158.385L148.706 190.664L74.7382 261.874L51.8279 284H54.0099L75.8292 262.924Z" fill="#0C0C0C"/>
<path d="M143.396 185.552L176.925 153.273L210.454 120.924L217 114.622V112.592L209.363 119.874L175.834 152.223L68.3377 255.712L38.9544 284H41.1363L69.4287 256.762L143.396 185.552Z" fill="#0C0C0C"/>
<path d="M53.6463 234.986L87.1752 202.707L120.777 170.358L194.744 99.1479L217 77.7219V75.6213L119.686 169.378L86.157 201.657L52.5553 233.936L0.625427 284H2.80736L53.6463 234.986Z" fill="#0C0C0C"/>
<path d="M-61.3414 59.6568L-94.9431 91.9359L-142 137.309V139.339L-93.8521 92.9862L-60.2504 60.7071L-26.7215 28.358L2.73456 0H0.625351L-27.8124 27.3777L-61.3414 59.6568Z" fill="#0C0C0C"/>
<path d="M26.1539 0L21.9355 4.06114L-85.5608 107.55L-119.162 139.829L-142 161.886V164.056L-80.9788 105.38L-47.4498 73.0306L-13.9208 40.7515L28.4086 0H26.1539Z" fill="#0C0C0C"/>
<path d="M-54.9411 65.8185L-142 149.632V151.733L-53.8501 66.8688L15.6079 0H13.426L-54.9411 65.8185Z" fill="#0C0C0C"/>
<path d="M29.4269 282.88L62.9559 250.601L170.525 147.041L217 102.299V100.198L202.963 113.712L169.434 146.061L135.832 178.34L28.336 281.829L26.1541 284H28.2632L29.4269 282.88Z" fill="#0C0C0C"/>
<path d="M2.29809 185.552L35.827 153.273L143.396 49.714L176.925 17.4349L195.035 0H192.853L175.834 16.3846L68.3378 119.874L34.7361 152.223L-72.7602 255.712L-102.071 284H-99.9616L2.29809 185.552Z" fill="#0C0C0C"/>
<path d="M-65.2688 262.924L42.3002 159.435L75.8292 127.156L183.326 23.5966L207.836 0H205.727L182.235 22.5463L74.7382 126.106L41.2093 158.385L7.60758 190.664L-89.27 284H-87.0881L-65.2688 262.924Z" fill="#0C0C0C"/>
<path d="M15.0989 197.946L48.7006 165.597L156.197 62.1075L189.726 29.8284L217 3.57099V1.4704L188.708 28.7781L155.106 61.0572L81.1386 132.267L47.6096 164.546L14.0807 196.895L-59.8867 268.105L-76.3966 284H-74.2874L15.0989 197.946Z" fill="#0C0C0C"/>
<path d="M-61.4143 284L-52.3956 275.318L55.1007 171.758L88.6296 139.479L196.199 35.9901L217 15.8945V13.8639L195.108 34.9398L161.579 67.2189L54.0097 170.778L-53.4866 274.267L-63.5962 284H-61.4143Z" fill="#0C0C0C"/>
<path d="M27.9722 210.269L61.5012 177.99L169.07 74.431L202.599 42.1519L217 28.288V26.1874L201.508 41.1016L167.979 73.4507L60.4829 176.94L26.8812 209.219L-50.7227 284H-48.6135L27.9722 210.269Z" fill="#0C0C0C"/>
<path d="M40.8454 222.663L74.3743 190.314L181.871 86.8245L215.472 54.5454L217 53.0049V50.9043L214.381 53.4951L180.78 85.7742L73.2834 189.263L39.7544 221.612L-25.0488 284H-22.8669L40.8454 222.663Z" fill="#0C0C0C"/>
<path d="M60.0465 241.148L93.6482 208.869L201.145 105.38L217 90.0453V87.8747L196.562 107.55L163.034 139.829L129.432 172.178L55.4645 243.389L21.9355 275.668L13.2805 284H15.6079L60.0465 241.148Z" fill="#0C0C0C"/>
<path d="M-10.0662 284L80.7748 196.475L188.271 92.9862L217 65.3284V63.2978L113.285 163.146L79.6838 195.495L-12.2481 284H-10.0662Z" fill="#0C0C0C"/>
<path d="M-53.85 202.707L-20.321 170.358L87.1753 66.8688L156.633 0H154.524L119.686 33.5394L86.1571 65.8185L52.5554 98.1676L-21.412 169.378L-54.941 201.657L-88.4699 233.936L-140.473 284H-138.291L-53.85 202.707Z" fill="#0C0C0C"/>
<path d="M-138.8 185.552L-105.198 153.273L2.29817 49.714L35.8271 17.4349L53.9371 0H51.8279L34.7362 16.3846L-72.7602 119.874L-106.289 152.223L-142 186.603V188.633L-138.8 185.552Z" fill="#0C0C0C"/>
<path d="M-78.0695 114.762L29.4268 11.2732L41.1365 0H38.9546L28.3358 10.2229L-5.19312 42.502L-79.1605 113.712L-112.689 146.061L-142 174.209V176.31L-111.671 147.041L-78.0695 114.762Z" fill="#0C0C0C"/>
<path d="M-111.671 282.88L-78.0694 250.601L29.4269 147.041L62.9559 114.762L170.525 11.2732L182.162 0H180.053L169.434 10.2229L135.832 42.502L28.336 146.061L-5.19299 178.34L-112.689 281.829L-114.944 284H-112.762L-111.671 282.88Z" fill="#0C0C0C"/>
<path d="M-125.926 197.946L-92.3975 165.597L15.0988 62.1075L48.7005 29.8284L79.6112 0H77.502L47.6096 28.7781L14.0806 61.0572L-93.4885 164.546L-127.017 196.895L-142 211.32V213.35L-125.926 197.946Z" fill="#0C0C0C"/>
<path d="M-100.252 222.663L-66.7235 190.314L40.8456 86.8244L74.3745 54.5454L107.903 22.1962L130.959 0H128.85L106.813 21.146L73.2836 53.4951L39.7546 85.7741L-34.2128 156.984L-67.8145 189.263L-101.343 221.612L-142 260.753V262.854L-100.252 222.663Z" fill="#0C0C0C"/>
<path d="M-80.9786 241.148L-47.4497 208.869L60.0466 105.38L93.6483 73.0306L127.177 40.7515L164.197 5.18146L169.507 0H167.179L163.034 4.06114L55.4646 107.55L21.9357 139.829L-85.5607 243.389L-119.162 275.668L-127.745 284H-125.417L-80.9786 241.148Z" fill="#0C0C0C"/>
<path d="M-142 201.027L-98.7978 159.435L-65.2689 127.156L8.6985 55.9458L42.3002 23.5966L66.8105 0H64.6286L41.2092 22.5463L7.60753 54.8955L-66.3598 126.106L-99.8888 158.385L-142 198.926V201.027Z" fill="#0C0C0C"/>
<path d="M-85.9972 171.758L-52.3955 139.479L55.1008 35.9901L88.6298 3.64102L92.4846 0H90.3026L87.6116 2.66075L54.0099 34.9398L20.4809 67.2189L-53.4865 138.429L-87.0154 170.778L-142 223.643V225.744L-119.526 204.107L-85.9972 171.758Z" fill="#0C0C0C"/>
<path d="M-79.5241 177.99L27.9722 74.431L61.5012 42.1519L105.285 0H103.176L94.0119 8.82248L60.4829 41.1016L26.8812 73.4507L-80.6151 176.94L-114.144 209.219L-142 236.036V238.067L-113.126 210.269L-79.5241 177.99Z" fill="#0C0C0C"/>
<path d="M-142 273.077V275.177L-93.8521 228.824L-60.2504 196.475L-26.7215 164.196L47.2459 92.9862L80.7749 60.7071L114.377 28.358L143.833 0H141.651L79.6839 59.6568L-27.8124 163.146L-61.3414 195.495L-142 273.077Z" fill="#0C0C0C"/>
<path d="M477.159 0H474.977L425.883 47.3333L318.387 150.822L284.785 183.102L217 248.36V250.461L285.876 184.152L319.405 151.873L393.373 80.6627L426.974 48.3136L460.503 16.0345L477.159 0Z" fill="#0C0C0C"/>
<path d="M333.951 0L318.387 14.9842L284.785 47.3333L217 112.592V114.622L285.876 48.3136L336.061 0H333.951Z" fill="#0C0C0C"/>
<path d="M297.659 59.6568L264.057 91.9359L217 137.309V139.339L265.148 92.9862L298.75 60.7071L332.279 28.358L361.735 0H359.625L331.188 27.3777L297.659 59.6568Z" fill="#0C0C0C"/>
<path d="M217 63.1578V65.1884L260.202 23.5966L284.712 0H282.531L259.111 22.5463L217 63.1578Z" fill="#0C0C0C"/>
<path d="M305.514 2.66075L271.985 34.9398L217 87.8747V89.9053L273.003 35.9901L306.605 3.64102L310.387 0H308.277L305.514 2.66075Z" fill="#0C0C0C"/>
<path d="M324.787 21.146L291.186 53.4951L257.657 85.7741L217 124.915V127.016L258.748 86.8244L292.277 54.5454L325.878 22.1962L348.934 0H346.752L324.787 21.146Z" fill="#0C0C0C"/>
<path d="M385.154 0L380.936 4.06114L273.439 107.55L239.838 139.829L217 161.886V164.056L278.021 105.38L311.55 73.0306L345.079 40.7515L387.409 0H385.154Z" fill="#0C0C0C"/>
<path d="M304.059 65.8185L217 149.632V151.733L305.15 66.8688L374.608 0H372.426L304.059 65.8185Z" fill="#0C0C0C"/>
<path d="M361.298 185.552L394.827 153.273L502.396 49.714L535.925 17.4349L554.035 0H551.853L534.834 16.3846L427.338 119.874L393.736 152.223L286.24 255.712L256.929 284H259.038L361.298 185.552Z" fill="#0C0C0C"/>
<path d="M305.15 202.707L338.679 170.358L446.175 66.8688L515.633 0H513.524L478.686 33.5394L445.157 65.8185L411.555 98.1676L337.588 169.378L304.059 201.657L270.53 233.936L218.527 284H220.709L305.15 202.707Z" fill="#0C0C0C"/>
<path d="M256.857 0L246.311 10.2229L217 38.4408V40.4714L247.329 11.2732L259.038 0H256.857Z" fill="#0C0C0C"/>
<path d="M252.711 16.3846L219.109 48.7337L217 50.7643V52.8649L220.2 49.714L253.802 17.4349L271.912 0H269.73L252.711 16.3846Z" fill="#0C0C0C"/>
<path d="M217 3.571L220.709 0H218.527L217 1.47041V3.571Z" fill="#0C0C0C"/>
<path d="M217 15.8945L233.51 0H231.401L217 13.8639V15.8945Z" fill="#0C0C0C"/>
<path d="M244.056 0L239.838 4.06114L217 26.0473V28.288L246.383 0H244.056Z" fill="#0C0C0C"/>
<path d="M220.2 185.552L253.802 153.273L361.298 49.714L394.827 17.4349L412.937 0H410.828L393.736 16.3846L286.24 119.874L252.711 152.223L217 186.603V188.633L220.2 185.552Z" fill="#0C0C0C"/>
<path d="M280.93 114.762L388.427 11.2732L400.136 0H397.955L387.336 10.2229L353.807 42.502L279.84 113.712L246.311 146.061L217 174.209V176.31L247.329 147.041L280.93 114.762Z" fill="#0C0C0C"/>
<path d="M244.856 73.4507L217 100.198V102.299L245.874 74.431L279.476 42.1519L323.26 0H321.078L278.385 41.1016L244.856 73.4507Z" fill="#0C0C0C"/>
<path d="M217 77.5818L233.074 62.1075L266.602 29.8284L297.586 0H295.404L265.512 28.7781L231.983 61.0572L217 75.4812V77.5818Z" fill="#0C0C0C"/>
<path d="M247.329 282.88L280.931 250.601L388.427 147.041L421.956 114.762L529.525 11.2732L541.162 0H539.053L528.434 10.2229L494.832 42.502L387.336 146.061L353.807 178.34L246.311 281.829L244.056 284H246.238L247.329 282.88Z" fill="#0C0C0C"/>
<path d="M233.074 197.946L266.602 165.597L374.099 62.1075L407.701 29.8284L438.611 0H436.502L406.61 28.7781L373.081 61.0572L265.512 164.546L231.983 196.895L217 211.32V213.35L233.074 197.946Z" fill="#0C0C0C"/>
<path d="M258.748 222.663L292.277 190.314L399.846 86.8244L433.375 54.5454L466.903 22.1962L489.959 0H487.85L465.813 21.146L432.284 53.4951L398.755 85.7741L324.787 156.984L291.186 189.263L257.657 221.612L217 260.753V262.854L258.748 222.663Z" fill="#0C0C0C"/>
<path d="M278.021 241.148L311.55 208.869L419.047 105.38L452.648 73.0306L486.177 40.7515L523.197 5.18146L528.507 0H526.179L522.034 4.06114L414.465 107.55L380.936 139.829L273.439 243.389L239.838 275.668L231.255 284H233.583L278.021 241.148Z" fill="#0C0C0C"/>
<path d="M217 201.027L260.202 159.435L293.731 127.156L367.699 55.9458L401.3 23.5966L425.811 0H423.629L400.209 22.5463L366.608 54.8955L292.64 126.106L259.111 158.385L217 198.926V201.027Z" fill="#0C0C0C"/>
<path d="M273.003 171.758L306.605 139.479L414.101 35.9901L447.63 3.64102L451.485 0H449.303L446.612 2.66075L413.01 34.9398L379.481 67.2189L305.514 138.429L271.985 170.778L217 223.643V225.744L239.474 204.107L273.003 171.758Z" fill="#0C0C0C"/>
<path d="M279.476 177.99L386.972 74.431L420.501 42.1519L464.285 0H462.176L453.012 8.82248L419.483 41.1016L385.881 73.4507L278.385 176.94L244.856 209.219L217 236.036V238.067L245.874 210.269L279.476 177.99Z" fill="#0C0C0C"/>
<path d="M217 273.077V275.177L265.148 228.824L298.75 196.475L332.279 164.196L406.246 92.9862L439.775 60.7071L473.377 28.358L502.833 0H500.651L438.684 59.6568L331.188 163.146L297.659 195.495L217 273.077Z" fill="#0C0C0C"/>
</g>
<defs>
<clipPath id="clip0">
<rect width="409" height="137" fill="white" transform="translate(-142)"/>
</clipPath>
</defs>
</svg>
