<svg width="655" height="68" viewBox="0 0 655 68" fill="none" xmlns="http://www.w3.org/2000/svg">
<g clip-path="url(#clip0)">
<path d="M341 38.5809L331.909 47.3333L224.412 150.822L190.883 183.102L86.0781 284H88.2601L191.974 184.152L225.503 151.873L333 48.3136L341 40.6114V38.5809Z" fill="#0C0C0C"/>
<path d="M242.159 0H239.977L190.883 47.3333L83.3869 150.822L49.7852 183.102L-18 248.36V250.461L50.8762 184.152L84.4052 151.873L158.373 80.6627L191.974 48.3136L225.503 16.0345L242.159 0Z" fill="#0C0C0C"/>
<path d="M98.9513 0L83.3869 14.9842L49.7852 47.3333L-18 112.592V114.622L50.8762 48.3136L101.061 0H98.9513Z" fill="#0C0C0C"/>
<path d="M62.6586 59.6568L29.0569 91.9359L-18 137.309V139.339L30.1479 92.9862L63.7496 60.7071L97.2785 28.358L126.735 0H124.625L96.1876 27.3777L62.6586 59.6568Z" fill="#0C0C0C"/>
<path d="M-18 63.1578V65.1884L25.2022 23.5966L49.7125 0H47.5306L24.1112 22.5463L-18 63.1578Z" fill="#0C0C0C"/>
<path d="M70.5135 2.66075L36.9846 34.9398L-18 87.8747V89.9053L38.0028 35.9901L71.6045 3.64102L75.3865 0H73.2773L70.5135 2.66075Z" fill="#0C0C0C"/>
<path d="M89.7872 21.146L56.1856 53.4951L22.6566 85.7741L-18 124.915V127.016L23.7476 86.8244L57.2765 54.5454L90.8782 22.1962L113.934 0H111.752L89.7872 21.146Z" fill="#0C0C0C"/>
<path d="M150.154 0L145.936 4.06114L38.4392 107.55L4.83751 139.829L-18 161.886V164.056L43.0212 105.38L76.5502 73.0306L110.079 40.7515L152.409 0H150.154Z" fill="#0C0C0C"/>
<path d="M69.0589 65.8185L-18 149.632V151.733L70.1499 66.8688L139.608 0H137.426L69.0589 65.8185Z" fill="#0C0C0C"/>
<path d="M126.298 185.552L159.827 153.273L267.396 49.714L300.925 17.4349L319.035 0H316.853L299.834 16.3846L192.338 119.874L158.736 152.223L51.2398 255.712L21.9292 284H24.0384L126.298 185.552Z" fill="#0C0C0C"/>
<path d="M58.7312 262.924L166.3 159.435L199.829 127.156L307.326 23.5966L331.836 0H329.727L306.235 22.5463L198.738 126.106L165.209 158.385L131.608 190.664L34.73 284H36.9119L58.7312 262.924Z" fill="#0C0C0C"/>
<path d="M139.099 197.946L172.701 165.597L280.197 62.1075L313.726 29.8284L341 3.57099V1.4704L312.708 28.7781L279.106 61.0572L205.139 132.267L171.61 164.546L138.081 196.895L64.1134 268.105L47.6035 284H49.7127L139.099 197.946Z" fill="#0C0C0C"/>
<path d="M62.5857 284L71.6044 275.318L179.101 171.758L212.63 139.479L320.199 35.9901L341 15.8945V13.8639L319.108 34.9398L285.579 67.2189L178.01 170.778L70.5134 274.267L60.4038 284H62.5857Z" fill="#0C0C0C"/>
<path d="M151.972 210.269L185.501 177.99L293.07 74.431L326.599 42.1519L341 28.288V26.1874L325.508 41.1016L291.979 73.4507L184.483 176.94L150.881 209.219L73.2773 284H75.3865L151.972 210.269Z" fill="#0C0C0C"/>
<path d="M164.845 222.663L198.374 190.314L305.871 86.8245L339.472 54.5454L341 53.0049V50.9044L338.381 53.4951L304.78 85.7742L197.283 189.263L163.754 221.612L98.9512 284H101.133L164.845 222.663Z" fill="#0C0C0C"/>
<path d="M113.934 284L204.775 196.475L312.271 92.9862L341 65.3284V63.2979L237.286 163.146L203.684 195.495L111.752 284H113.934Z" fill="#0C0C0C"/>
<path d="M70.1499 202.707L103.679 170.358L211.175 66.8688L280.633 0H278.524L243.686 33.5394L210.157 65.8185L176.555 98.1676L102.588 169.378L69.0589 201.657L35.53 233.936L-16.4727 284H-14.2907L70.1499 202.707Z" fill="#0C0C0C"/>
<path d="M21.8566 0L11.3106 10.2229L-18 38.4408V40.4714L12.3288 11.2732L24.0385 0H21.8566Z" fill="#0C0C0C"/>
<path d="M17.7109 16.3846L-15.8908 48.7337L-18 50.7643V52.8649L-14.7998 49.714L18.8019 17.4349L36.9119 0H34.7299L17.7109 16.3846Z" fill="#0C0C0C"/>
<path d="M9.05591 0L4.83751 4.06114L-18 26.0473V28.288L11.3833 0H9.05591Z" fill="#0C0C0C"/>
<path d="M-14.7998 185.552L18.8019 153.273L126.298 49.714L159.827 17.4349L177.937 0H175.828L158.736 16.3846L51.2398 119.874L17.7109 152.223L-18 186.603V188.633L-14.7998 185.552Z" fill="#0C0C0C"/>
<path d="M45.9305 114.762L153.427 11.2732L165.136 0H162.955L152.336 10.2229L118.807 42.502L44.8395 113.712L11.3106 146.061L-18 174.209V176.31L12.3288 147.041L45.9305 114.762Z" fill="#0C0C0C"/>
<path d="M9.85595 73.4507L-18 100.198V102.299L10.8742 74.431L44.4759 42.1519L88.2599 0H86.078L43.3849 41.1016L9.85595 73.4507Z" fill="#0C0C0C"/>
<path d="M-18 77.5818L-1.92646 62.1075L31.6025 29.8284L62.5859 0H60.404L30.5115 28.7781L-3.01743 61.0572L-18 75.4812V77.5818Z" fill="#0C0C0C"/>
<path d="M12.329 282.88L45.9307 250.601L153.427 147.041L186.956 114.762L294.525 11.2732L306.162 0H304.053L293.434 10.2229L259.832 42.502L152.336 146.061L118.807 178.34L11.3108 281.829L9.05615 284H11.2381L12.329 282.88Z" fill="#0C0C0C"/>
<path d="M-1.92646 197.946L31.6025 165.597L139.099 62.1075L172.701 29.8284L203.611 0H201.502L171.61 28.7781L138.081 61.0572L30.5115 164.546L-3.01743 196.895L-18 211.32V213.35L-1.92646 197.946Z" fill="#0C0C0C"/>
<path d="M23.7476 222.663L57.2765 190.314L164.846 86.8244L198.375 54.5454L231.903 22.1962L254.959 0H252.85L230.813 21.146L197.284 53.4951L163.755 85.7741L89.7872 156.984L56.1855 189.263L22.6566 221.612L-18 260.753V262.854L23.7476 222.663Z" fill="#0C0C0C"/>
<path d="M43.0214 241.148L76.5503 208.869L184.047 105.38L217.648 73.0306L251.177 40.7515L288.197 5.18146L293.507 0H291.179L287.034 4.06114L179.465 107.55L145.936 139.829L38.4393 243.389L4.83762 275.668L-3.74463 284H-1.41724L43.0214 241.148Z" fill="#0C0C0C"/>
<path d="M-18 201.027L25.2022 159.435L58.7311 127.156L132.699 55.9458L166.3 23.5966L190.811 0H188.629L165.209 22.5463L131.608 54.8955L57.6402 126.106L24.1112 158.385L-18 198.926V201.027Z" fill="#0C0C0C"/>
<path d="M38.0028 171.758L71.6045 139.479L179.101 35.9901L212.63 3.64102L216.485 0H214.303L211.612 2.66075L178.01 34.9398L144.481 67.2189L70.5135 138.429L36.9846 170.778L-18 223.643V225.744L4.47386 204.107L38.0028 171.758Z" fill="#0C0C0C"/>
<path d="M44.4759 177.99L151.972 74.431L185.501 42.1519L229.285 0H227.176L218.012 8.82248L184.483 41.1016L150.881 73.4507L43.3849 176.94L9.85595 209.219L-18 236.036V238.067L10.8742 210.269L44.4759 177.99Z" fill="#0C0C0C"/>
<path d="M-18 273.077V275.177L30.1479 228.824L63.7496 196.475L97.2785 164.196L171.246 92.9862L204.775 60.7071L238.377 28.358L267.833 0H265.651L203.684 59.6568L96.1876 163.146L62.6586 195.495L-18 273.077Z" fill="#0C0C0C"/>
<path d="M700 38.5809L690.909 47.3333L583.412 150.822L549.883 183.102L445.078 284H447.26L550.974 184.152L584.503 151.873L692 48.3136L700 40.6114V38.5809Z" fill="#0C0C0C"/>
<path d="M601.159 0H598.977L549.883 47.3333L442.387 150.822L408.785 183.102L341 248.36V250.461L409.876 184.152L443.405 151.873L517.373 80.6627L550.974 48.3136L584.503 16.0345L601.159 0Z" fill="#0C0C0C"/>
<path d="M457.951 0L442.387 14.9842L408.785 47.3333L341 112.592V114.622L409.876 48.3136L460.061 0H457.951Z" fill="#0C0C0C"/>
<path d="M421.659 59.6568L388.057 91.9359L341 137.309V139.339L389.148 92.9862L422.75 60.7071L456.279 28.358L485.735 0H483.625L455.188 27.3777L421.659 59.6568Z" fill="#0C0C0C"/>
<path d="M341 63.1578V65.1884L384.202 23.5966L408.712 0H406.531L383.111 22.5463L341 63.1578Z" fill="#0C0C0C"/>
<path d="M429.514 2.66075L395.985 34.9398L341 87.8747V89.9053L397.003 35.9901L430.605 3.64102L434.387 0H432.277L429.514 2.66075Z" fill="#0C0C0C"/>
<path d="M448.787 21.146L415.186 53.4951L381.657 85.7741L341 124.915V127.016L382.748 86.8244L416.277 54.5454L449.878 22.1962L472.934 0H470.752L448.787 21.146Z" fill="#0C0C0C"/>
<path d="M509.154 0L504.936 4.06114L397.439 107.55L363.838 139.829L341 161.886V164.056L402.021 105.38L435.55 73.0306L469.079 40.7515L511.409 0H509.154Z" fill="#0C0C0C"/>
<path d="M428.059 65.8185L341 149.632V151.733L429.15 66.8688L498.608 0H496.426L428.059 65.8185Z" fill="#0C0C0C"/>
<path d="M485.298 185.552L518.827 153.273L626.396 49.714L659.925 17.4349L678.035 0H675.853L658.834 16.3846L551.338 119.874L517.736 152.223L410.24 255.712L380.929 284H383.038L485.298 185.552Z" fill="#0C0C0C"/>
<path d="M417.731 262.924L525.3 159.435L558.829 127.156L666.326 23.5966L690.836 0H688.727L665.235 22.5463L557.738 126.106L524.209 158.385L490.608 190.664L393.73 284H395.912L417.731 262.924Z" fill="#0C0C0C"/>
<path d="M498.099 197.946L531.701 165.597L639.197 62.1075L672.726 29.8284L700 3.57099V1.4704L671.708 28.7781L638.106 61.0572L564.139 132.267L530.61 164.546L497.081 196.895L423.113 268.105L406.604 284H408.713L498.099 197.946Z" fill="#0C0C0C"/>
<path d="M421.586 284L430.604 275.318L538.101 171.758L571.63 139.479L679.199 35.9901L700 15.8945V13.8639L678.108 34.9398L644.579 67.2189L537.01 170.778L429.513 274.267L419.404 284H421.586Z" fill="#0C0C0C"/>
<path d="M510.972 210.269L544.501 177.99L652.07 74.431L685.599 42.1519L700 28.288V26.1874L684.508 41.1016L650.979 73.4507L543.483 176.94L509.881 209.219L432.277 284H434.387L510.972 210.269Z" fill="#0C0C0C"/>
<path d="M523.845 222.663L557.374 190.314L664.871 86.8245L698.472 54.5454L700 53.0049V50.9044L697.381 53.4951L663.78 85.7742L556.283 189.263L522.754 221.612L457.951 284H460.133L523.845 222.663Z" fill="#0C0C0C"/>
<path d="M472.934 284L563.775 196.475L671.271 92.9862L700 65.3284V63.2979L596.286 163.146L562.684 195.495L470.752 284H472.934Z" fill="#0C0C0C"/>
<path d="M429.15 202.707L462.679 170.358L570.175 66.8688L639.633 0H637.524L602.686 33.5394L569.157 65.8185L535.555 98.1676L461.588 169.378L428.059 201.657L394.53 233.936L342.527 284H344.709L429.15 202.707Z" fill="#0C0C0C"/>
<path d="M380.857 0L370.311 10.2229L341 38.4408V40.4714L371.329 11.2732L383.038 0H380.857Z" fill="#0C0C0C"/>
<path d="M376.711 16.3846L343.109 48.7337L341 50.7643V52.8649L344.2 49.714L377.802 17.4349L395.912 0H393.73L376.711 16.3846Z" fill="#0C0C0C"/>
<path d="M341 3.571L344.709 0H342.527L341 1.47041V3.571Z" fill="#0C0C0C"/>
<path d="M341 15.8945L357.51 0H355.401L341 13.8639V15.8945Z" fill="#0C0C0C"/>
<path d="M368.056 0L363.838 4.06114L341 26.0473V28.288L370.383 0H368.056Z" fill="#0C0C0C"/>
<path d="M344.2 185.552L377.802 153.273L485.298 49.714L518.827 17.4349L536.937 0H534.828L517.736 16.3846L410.24 119.874L376.711 152.223L341 186.603V188.633L344.2 185.552Z" fill="#0C0C0C"/>
<path d="M404.93 114.762L512.427 11.2732L524.136 0H521.955L511.336 10.2229L477.807 42.502L403.84 113.712L370.311 146.061L341 174.209V176.31L371.329 147.041L404.93 114.762Z" fill="#0C0C0C"/>
<path d="M368.856 73.4507L341 100.198V102.299L369.874 74.431L403.476 42.1519L447.26 0H445.078L402.385 41.1016L368.856 73.4507Z" fill="#0C0C0C"/>
<path d="M341 77.5818L357.074 62.1075L390.602 29.8284L421.586 0H419.404L389.512 28.7781L355.983 61.0572L341 75.4812V77.5818Z" fill="#0C0C0C"/>
<path d="M371.329 282.88L404.931 250.601L512.427 147.041L545.956 114.762L653.525 11.2732L665.162 0H663.053L652.434 10.2229L618.832 42.502L511.336 146.061L477.807 178.34L370.311 281.829L368.056 284H370.238L371.329 282.88Z" fill="#0C0C0C"/>
<path d="M357.074 197.946L390.602 165.597L498.099 62.1075L531.701 29.8284L562.611 0H560.502L530.61 28.7781L497.081 61.0572L389.512 164.546L355.983 196.895L341 211.32V213.35L357.074 197.946Z" fill="#0C0C0C"/>
<path d="M382.748 222.663L416.277 190.314L523.846 86.8244L557.375 54.5454L590.903 22.1962L613.959 0H611.85L589.813 21.146L556.284 53.4951L522.755 85.7741L448.787 156.984L415.186 189.263L381.657 221.612L341 260.753V262.854L382.748 222.663Z" fill="#0C0C0C"/>
<path d="M402.021 241.148L435.55 208.869L543.047 105.38L576.648 73.0306L610.177 40.7515L647.197 5.18146L652.507 0H650.179L646.034 4.06114L538.465 107.55L504.936 139.829L397.439 243.389L363.838 275.668L355.255 284H357.583L402.021 241.148Z" fill="#0C0C0C"/>
<path d="M341 201.027L384.202 159.435L417.731 127.156L491.699 55.9458L525.3 23.5966L549.811 0H547.629L524.209 22.5463L490.608 54.8955L416.64 126.106L383.111 158.385L341 198.926V201.027Z" fill="#0C0C0C"/>
<path d="M397.003 171.758L430.605 139.479L538.101 35.9901L571.63 3.64102L575.485 0H573.303L570.612 2.66075L537.01 34.9398L503.481 67.2189L429.514 138.429L395.985 170.778L341 223.643V225.744L363.474 204.107L397.003 171.758Z" fill="#0C0C0C"/>
<path d="M403.476 177.99L510.972 74.431L544.501 42.1519L588.285 0H586.176L577.012 8.82248L543.483 41.1016L509.881 73.4507L402.385 176.94L368.856 209.219L341 236.036V238.067L369.874 210.269L403.476 177.99Z" fill="#0C0C0C"/>
<path d="M341 273.077V275.177L389.148 228.824L422.75 196.475L456.279 164.196L530.246 92.9862L563.775 60.7071L597.377 28.358L626.833 0H624.651L562.684 59.6568L455.188 163.146L421.659 195.495L341 273.077Z" fill="#0C0C0C"/>
</g>
<defs>
<clipPath id="clip0">
<rect width="673" height="68" fill="white" transform="translate(-18)"/>
</clipPath>
</defs>
</svg>
