<svg width="99" height="586" viewBox="0 0 99 586" fill="none" xmlns="http://www.w3.org/2000/svg">
<g clip-path="url(#clip0)">
<path d="M260.159 0.0942383H257.977L208.883 47.4276L101.387 150.917L67.7852 183.196L0 248.454V250.555L68.8762 184.246L102.405 151.967L176.373 80.757L209.974 48.4078L243.503 16.1288L260.159 0.0942383Z" fill="#0C0C0C"/>
<path d="M116.951 0.0942383L101.387 15.0785L67.7852 47.4276L0 112.686V114.717L68.8762 48.4078L119.061 0.0942383H116.951Z" fill="#0C0C0C"/>
<path d="M80.6586 59.751L47.0569 92.0301L0 137.403V139.433L48.1479 93.0804L81.7496 60.8013L115.279 28.4522L144.735 0.0942383H142.625L114.188 27.4719L80.6586 59.751Z" fill="#0C0C0C"/>
<path d="M0 63.252V65.2826L43.2022 23.6909L67.7125 0.0942383H65.5306L42.1112 22.6406L0 63.252Z" fill="#0C0C0C"/>
<path d="M88.5135 2.75498L54.9846 35.0341L0 87.969V89.9995L56.0028 36.0844L89.6045 3.73526L93.3865 0.0942383H91.2773L88.5135 2.75498Z" fill="#0C0C0C"/>
<path d="M107.787 21.2402L74.1856 53.5893L40.6566 85.8684L0 125.009V127.11L41.7476 86.9187L75.2765 54.6396L108.878 22.2905L131.934 0.0942383H129.752L107.787 21.2402Z" fill="#0C0C0C"/>
<path d="M168.154 0.0942383L163.936 4.15538L56.4392 107.645L22.8375 139.924L0 161.98V164.15L61.0212 105.474L94.5502 73.1248L128.079 40.8457L170.409 0.0942383H168.154Z" fill="#0C0C0C"/>
<path d="M87.0589 65.9128L0 149.726V151.827L88.1499 66.9631L157.608 0.0942383H155.426L87.0589 65.9128Z" fill="#0C0C0C"/>
<path d="M144.298 185.646L177.827 153.367L285.396 49.8082L318.925 17.5291L337.035 0.0942383H334.853L317.834 16.4789L210.338 119.968L176.736 152.317L69.2398 255.806L39.9292 284.094H42.0384L144.298 185.646Z" fill="#0C0C0C"/>
<path d="M76.7311 263.018L184.3 159.529L217.829 127.25L325.325 23.6909L349.836 0.0942383H347.727L324.234 22.6406L216.738 126.2L183.209 158.479L149.608 190.758L52.7299 284.094H54.9118L76.7311 263.018Z" fill="#0C0C0C"/>
<path d="M157.099 198.04L190.701 165.691L298.197 62.2017L331.726 29.9226L359 3.66523V1.56464L330.708 28.8723L297.106 61.1514L223.139 132.361L189.61 164.641L156.081 196.99L82.1134 268.2L65.6035 284.094H67.7126L157.099 198.04Z" fill="#0C0C0C"/>
<path d="M80.5857 284.094L89.6044 275.412L197.101 171.853L230.63 139.574L338.199 36.0844L359 15.9887V13.9581L337.108 35.0341L303.579 67.3132L196.01 170.872L88.5134 274.361L78.4038 284.094H80.5857Z" fill="#0C0C0C"/>
<path d="M169.972 210.363L203.501 178.084L311.07 74.5252L344.599 42.2461L359 28.3822V26.2816L343.508 41.1958L309.979 73.5449L202.483 177.034L168.881 209.313L91.2773 284.094H93.3865L169.972 210.363Z" fill="#0C0C0C"/>
<path d="M88.15 202.801L121.679 170.452L229.175 66.9631L298.633 0.0942383H296.524L261.686 33.6337L228.157 65.9128L194.555 98.2619L120.588 169.472L87.059 201.751L53.53 234.03L1.52742 284.094H3.70935L88.15 202.801Z" fill="#0C0C0C"/>
<path d="M39.8566 0.0942383L29.3106 10.3171L0 38.5351V40.5656L30.3288 11.3674L42.0385 0.0942383H39.8566Z" fill="#0C0C0C"/>
<path d="M35.7109 16.4789L2.1092 48.828L0 50.8585V52.9591L3.20016 49.8082L36.8019 17.5291L54.9119 0.0942383H52.7299L35.7109 16.4789Z" fill="#0C0C0C"/>
<path d="M0 3.66524L3.70928 0.0942383H1.52735L0 1.56465V3.66524Z" fill="#0C0C0C"/>
<path d="M0 15.9887L16.5099 0.0942383H14.4007L0 13.9581V15.9887Z" fill="#0C0C0C"/>
<path d="M27.0559 0.0942383L22.8375 4.15538L0 26.1416V28.3822L29.3833 0.0942383H27.0559Z" fill="#0C0C0C"/>
<path d="M3.20016 185.646L36.8019 153.367L144.298 49.8082L177.827 17.5291L195.937 0.0942383H193.828L176.736 16.4789L69.2398 119.968L35.7109 152.317L0 186.697V188.727L3.20016 185.646Z" fill="#0C0C0C"/>
<path d="M63.9305 114.857L171.427 11.3674L183.136 0.0942383H180.955L170.336 10.3171L136.807 42.5962L62.8395 113.806L29.3106 146.155L0 174.303V176.404L30.3288 147.136L63.9305 114.857Z" fill="#0C0C0C"/>
<path d="M27.8559 73.5449L0 100.292V102.393L28.8742 74.5252L62.4759 42.2461L106.26 0.0942383H104.078L61.3849 41.1958L27.8559 73.5449Z" fill="#0C0C0C"/>
<path d="M0 77.6761L16.0735 62.2017L49.6025 29.9226L80.5859 0.0942383H78.404L48.5115 28.8723L14.9826 61.1514L0 75.5755V77.6761Z" fill="#0C0C0C"/>
<path d="M30.3289 282.974L63.9306 250.695L171.427 147.136L204.956 114.857L312.525 11.3674L324.162 0.0942383H322.053L311.434 10.3171L277.832 42.5962L170.336 146.155L136.807 178.434L29.3107 281.924L27.056 284.094H29.238L30.3289 282.974Z" fill="#0C0C0C"/>
<path d="M16.0735 198.04L49.6025 165.691L157.099 62.2017L190.701 29.9226L221.611 0.0942383H219.502L189.61 28.8723L156.081 61.1514L48.5115 164.641L14.9826 196.99L0 211.414V213.444L16.0735 198.04Z" fill="#0C0C0C"/>
<path d="M41.7476 222.757L75.2765 190.408L182.846 86.9187L216.375 54.6396L249.903 22.2905L272.959 0.0942383H270.85L248.813 21.2402L215.284 53.5893L181.755 85.8684L107.787 157.078L74.1855 189.358L40.6566 221.707L0 260.848V262.948L41.7476 222.757Z" fill="#0C0C0C"/>
<path d="M61.0213 241.242L94.5503 208.963L202.047 105.474L235.648 73.1248L269.177 40.8457L306.197 5.2757L311.507 0.0942383H309.179L305.034 4.15538L197.465 107.645L163.936 139.924L56.4393 243.483L22.8376 275.762L14.2553 284.094H16.5827L61.0213 241.242Z" fill="#0C0C0C"/>
<path d="M0 201.121L43.2022 159.529L76.7311 127.25L150.699 56.04L184.3 23.6909L208.811 0.0942383H206.629L183.209 22.6406L149.608 54.9897L75.6402 126.2L42.1112 158.479L0 199.02V201.121Z" fill="#0C0C0C"/>
<path d="M56.0028 171.853L89.6045 139.574L197.101 36.0844L230.63 3.73526L234.485 0.0942383H232.303L229.612 2.75498L196.01 35.0341L162.481 67.3132L88.5135 138.523L54.9846 170.872L0 223.737V225.838L22.4739 204.202L56.0028 171.853Z" fill="#0C0C0C"/>
<path d="M62.4759 178.084L169.972 74.5252L203.501 42.2461L247.285 0.0942383H245.176L236.012 8.91672L202.483 41.1958L168.881 73.5449L61.3849 177.034L27.8559 209.313L0 236.131V238.161L28.8742 210.363L62.4759 178.084Z" fill="#0C0C0C"/>
<path d="M0 273.171V275.272L48.1479 228.919L81.7496 196.57L115.279 164.29L189.246 93.0804L222.775 60.8013L256.377 28.4522L285.833 0.0942383H283.651L221.684 59.751L114.188 163.24L80.6586 195.589L0 273.171Z" fill="#0C0C0C"/>
<path d="M260.159 284.094H257.977L208.883 331.428L101.387 434.917L67.7852 467.196L0 532.454V534.555L68.8762 468.246L102.405 435.967L176.373 364.757L209.974 332.408L243.503 300.129L260.159 284.094Z" fill="#0C0C0C"/>
<path d="M116.951 284.094L101.387 299.078L67.7852 331.428L0 396.686V398.717L68.8762 332.408L119.061 284.094H116.951Z" fill="#0C0C0C"/>
<path d="M80.6586 343.751L47.0569 376.03L0 421.403V423.433L48.1479 377.08L81.7496 344.801L115.279 312.452L144.735 284.094H142.625L114.188 311.472L80.6586 343.751Z" fill="#0C0C0C"/>
<path d="M0 347.252V349.283L43.2022 307.691L67.7125 284.094H65.5306L42.1112 306.641L0 347.252Z" fill="#0C0C0C"/>
<path d="M88.5135 286.755L54.9846 319.034L0 371.969V374L56.0028 320.084L89.6045 287.735L93.3865 284.094H91.2773L88.5135 286.755Z" fill="#0C0C0C"/>
<path d="M107.787 305.24L74.1856 337.589L40.6566 369.868L0 409.009V411.11L41.7476 370.919L75.2765 338.64L108.878 306.29L131.934 284.094H129.752L107.787 305.24Z" fill="#0C0C0C"/>
<path d="M168.154 284.094L163.936 288.155L56.4392 391.645L22.8375 423.924L0 445.98V448.15L61.0212 389.474L94.5502 357.125L128.079 324.846L170.409 284.094H168.154Z" fill="#0C0C0C"/>
<path d="M87.0589 349.913L0 433.726V435.827L88.1499 350.963L157.608 284.094H155.426L87.0589 349.913Z" fill="#0C0C0C"/>
<path d="M144.298 469.646L177.827 437.367L285.396 333.808L318.925 301.529L337.035 284.094H334.853L317.834 300.479L210.338 403.968L176.736 436.317L69.2398 539.806L39.9292 568.094H42.0384L144.298 469.646Z" fill="#0C0C0C"/>
<path d="M76.7311 547.018L184.3 443.529L217.829 411.25L325.325 307.691L349.836 284.094H347.727L324.234 306.641L216.738 410.2L183.209 442.479L149.608 474.758L52.7299 568.094H54.9118L76.7311 547.018Z" fill="#0C0C0C"/>
<path d="M157.099 482.04L190.701 449.691L298.197 346.202L331.726 313.923L359 287.665V285.565L330.708 312.872L297.106 345.151L223.139 416.361L189.61 448.641L156.081 480.99L82.1134 552.2L65.6035 568.094H67.7126L157.099 482.04Z" fill="#0C0C0C"/>
<path d="M80.5857 568.094L89.6044 559.412L197.101 455.853L230.63 423.574L338.199 320.084L359 299.989V297.958L337.108 319.034L303.579 351.313L196.01 454.872L88.5134 558.361L78.4038 568.094H80.5857Z" fill="#0C0C0C"/>
<path d="M169.972 494.363L203.501 462.084L311.07 358.525L344.599 326.246L359 312.382V310.282L343.508 325.196L309.979 357.545L202.483 461.034L168.881 493.313L91.2773 568.094H93.3865L169.972 494.363Z" fill="#0C0C0C"/>
<path d="M88.15 486.801L121.679 454.452L229.175 350.963L298.633 284.094H296.524L261.686 317.634L228.157 349.913L194.555 382.262L120.588 453.472L87.059 485.751L53.53 518.03L1.52742 568.094H3.70935L88.15 486.801Z" fill="#0C0C0C"/>
<path d="M39.8566 284.094L29.3106 294.317L0 322.535V324.566L30.3288 295.367L42.0385 284.094H39.8566Z" fill="#0C0C0C"/>
<path d="M35.7109 300.479L2.1092 332.828L0 334.859V336.959L3.20016 333.808L36.8019 301.529L54.9119 284.094H52.7299L35.7109 300.479Z" fill="#0C0C0C"/>
<path d="M0 287.665L3.70928 284.094H1.52735L0 285.565V287.665Z" fill="#0C0C0C"/>
<path d="M0 299.989L16.5099 284.094H14.4007L0 297.958V299.989Z" fill="#0C0C0C"/>
<path d="M27.0559 284.094L22.8375 288.155L0 310.142V312.382L29.3833 284.094H27.0559Z" fill="#0C0C0C"/>
<path d="M3.20016 469.646L36.8019 437.367L144.298 333.808L177.827 301.529L195.937 284.094H193.828L176.736 300.479L69.2398 403.968L35.7109 436.317L0 470.697V472.727L3.20016 469.646Z" fill="#0C0C0C"/>
<path d="M63.9305 398.857L171.427 295.367L183.136 284.094H180.955L170.336 294.317L136.807 326.596L62.8395 397.806L29.3106 430.155L0 458.303V460.404L30.3288 431.136L63.9305 398.857Z" fill="#0C0C0C"/>
<path d="M27.8559 357.545L0 384.292V386.393L28.8742 358.525L62.4759 326.246L106.26 284.094H104.078L61.3849 325.196L27.8559 357.545Z" fill="#0C0C0C"/>
<path d="M0 361.676L16.0735 346.202L49.6025 313.923L80.5859 284.094H78.404L48.5115 312.872L14.9826 345.151L0 359.575V361.676Z" fill="#0C0C0C"/>
<path d="M30.3289 566.974L63.9306 534.695L171.427 431.136L204.956 398.857L312.525 295.367L324.162 284.094H322.053L311.434 294.317L277.832 326.596L170.336 430.155L136.807 462.434L29.3107 565.924L27.056 568.094H29.238L30.3289 566.974Z" fill="#0C0C0C"/>
<path d="M16.0735 482.04L49.6025 449.691L157.099 346.202L190.701 313.923L221.611 284.094H219.502L189.61 312.872L156.081 345.151L48.5115 448.641L14.9826 480.99L0 495.414V497.444L16.0735 482.04Z" fill="#0C0C0C"/>
<path d="M41.7476 506.757L75.2765 474.408L182.846 370.919L216.375 338.64L249.903 306.29L272.959 284.094H270.85L248.813 305.24L215.284 337.589L181.755 369.868L107.787 441.078L74.1855 473.358L40.6566 505.707L0 544.848V546.948L41.7476 506.757Z" fill="#0C0C0C"/>
<path d="M61.0213 525.242L94.5503 492.963L202.047 389.474L235.648 357.125L269.177 324.846L306.197 289.276L311.507 284.094H309.179L305.034 288.155L197.465 391.645L163.936 423.924L56.4393 527.483L22.8376 559.762L14.2553 568.094H16.5827L61.0213 525.242Z" fill="#0C0C0C"/>
<path d="M0 485.121L43.2022 443.529L76.7311 411.25L150.699 340.04L184.3 307.691L208.811 284.094H206.629L183.209 306.641L149.608 338.99L75.6402 410.2L42.1112 442.479L0 483.02V485.121Z" fill="#0C0C0C"/>
<path d="M56.0028 455.853L89.6045 423.574L197.101 320.084L230.63 287.735L234.485 284.094H232.303L229.612 286.755L196.01 319.034L162.481 351.313L88.5135 422.523L54.9846 454.872L0 507.737V509.838L22.4739 488.202L56.0028 455.853Z" fill="#0C0C0C"/>
<path d="M62.4759 462.084L169.972 358.525L203.501 326.246L247.285 284.094H245.176L236.012 292.917L202.483 325.196L168.881 357.545L61.3849 461.034L27.8559 493.313L0 520.131V522.161L28.8742 494.363L62.4759 462.084Z" fill="#0C0C0C"/>
<path d="M0 557.171V559.272L48.1479 512.919L81.7496 480.57L115.279 448.29L189.246 377.08L222.775 344.801L256.377 312.452L285.833 284.094H283.651L221.684 343.751L114.188 447.24L80.6586 479.589L0 557.171Z" fill="#0C0C0C"/>
<path d="M260.159 568.094H257.977L208.883 615.428L101.387 718.917L67.7852 751.196L0 816.454V818.555L68.8762 752.246L102.405 719.967L176.373 648.757L209.974 616.408L243.503 584.129L260.159 568.094Z" fill="#0C0C0C"/>
<path d="M116.951 568.094L101.387 583.078L67.7852 615.428L0 680.686V682.717L68.8762 616.408L119.061 568.094H116.951Z" fill="#0C0C0C"/>
<path d="M80.6586 627.751L47.0569 660.03L0 705.403V707.433L48.1479 661.08L81.7496 628.801L115.279 596.452L144.735 568.094H142.625L114.188 595.472L80.6586 627.751Z" fill="#0C0C0C"/>
<path d="M0 631.252V633.283L43.2022 591.691L67.7125 568.094H65.5306L42.1112 590.641L0 631.252Z" fill="#0C0C0C"/>
<path d="M88.5135 570.755L54.9846 603.034L0 655.969V658L56.0028 604.084L89.6045 571.735L93.3865 568.094H91.2773L88.5135 570.755Z" fill="#0C0C0C"/>
<path d="M107.787 589.24L74.1856 621.589L40.6566 653.868L0 693.009V695.11L41.7476 654.919L75.2765 622.64L108.878 590.29L131.934 568.094H129.752L107.787 589.24Z" fill="#0C0C0C"/>
<path d="M168.154 568.094L163.936 572.155L56.4392 675.645L22.8375 707.924L0 729.98V732.15L61.0212 673.474L94.5502 641.125L128.079 608.846L170.409 568.094H168.154Z" fill="#0C0C0C"/>
<path d="M87.0589 633.913L0 717.726V719.827L88.1499 634.963L157.608 568.094H155.426L87.0589 633.913Z" fill="#0C0C0C"/>
<path d="M144.298 753.646L177.827 721.367L285.396 617.808L318.925 585.529L337.035 568.094H334.853L317.834 584.479L210.338 687.968L176.736 720.317L69.2398 823.806L39.9292 852.094H42.0384L144.298 753.646Z" fill="#0C0C0C"/>
<path d="M76.7311 831.018L184.3 727.529L217.829 695.25L325.325 591.691L349.836 568.094H347.727L324.234 590.641L216.738 694.2L183.209 726.479L149.608 758.758L52.7299 852.094H54.9118L76.7311 831.018Z" fill="#0C0C0C"/>
<path d="M157.099 766.04L190.701 733.691L298.197 630.202L331.726 597.923L359 571.665V569.565L330.708 596.872L297.106 629.151L223.139 700.361L189.61 732.641L156.081 764.99L82.1134 836.2L65.6035 852.094H67.7126L157.099 766.04Z" fill="#0C0C0C"/>
<path d="M80.5857 852.094L89.6044 843.412L197.101 739.853L230.63 707.574L338.199 604.084L359 583.989V581.958L337.108 603.034L303.579 635.313L196.01 738.872L88.5134 842.361L78.4038 852.094H80.5857Z" fill="#0C0C0C"/>
<path d="M88.15 770.801L121.679 738.452L229.175 634.963L298.633 568.094H296.524L261.686 601.634L228.157 633.913L194.555 666.262L120.588 737.472L87.059 769.751L53.53 802.03L1.52742 852.094H3.70935L88.15 770.801Z" fill="#0C0C0C"/>
<path d="M39.8566 568.094L29.3106 578.317L0 606.535V608.566L30.3288 579.367L42.0385 568.094H39.8566Z" fill="#0C0C0C"/>
<path d="M35.7109 584.479L2.1092 616.828L0 618.859V620.959L3.20016 617.808L36.8019 585.529L54.9119 568.094H52.7299L35.7109 584.479Z" fill="#0C0C0C"/>
<path d="M0 571.665L3.70928 568.094H1.52735L0 569.565V571.665Z" fill="#0C0C0C"/>
<path d="M0 583.989L16.5099 568.094H14.4007L0 581.958V583.989Z" fill="#0C0C0C"/>
<path d="M27.0559 568.094L22.8375 572.155L0 594.142V596.382L29.3833 568.094H27.0559Z" fill="#0C0C0C"/>
<path d="M3.20016 753.646L36.8019 721.367L144.298 617.808L177.827 585.529L195.937 568.094H193.828L176.736 584.479L69.2398 687.968L35.7109 720.317L0 754.697V756.727L3.20016 753.646Z" fill="#0C0C0C"/>
<path d="M63.9305 682.857L171.427 579.367L183.136 568.094H180.955L170.336 578.317L136.807 610.596L62.8395 681.806L29.3106 714.155L0 742.303V744.404L30.3288 715.136L63.9305 682.857Z" fill="#0C0C0C"/>
<path d="M27.8559 641.545L0 668.292V670.393L28.8742 642.525L62.4759 610.246L106.26 568.094H104.078L61.3849 609.196L27.8559 641.545Z" fill="#0C0C0C"/>
<path d="M0 645.676L16.0735 630.202L49.6025 597.923L80.5859 568.094H78.404L48.5115 596.872L14.9826 629.151L0 643.575V645.676Z" fill="#0C0C0C"/>
<path d="M30.3289 850.974L63.9306 818.695L171.427 715.136L204.956 682.857L312.525 579.367L324.162 568.094H322.053L311.434 578.317L277.832 610.596L170.336 714.155L136.807 746.434L29.3107 849.924L27.056 852.094H29.238L30.3289 850.974Z" fill="#0C0C0C"/>
<path d="M16.0735 766.04L49.6025 733.691L157.099 630.202L190.701 597.923L221.611 568.094H219.502L189.61 596.872L156.081 629.151L48.5115 732.641L14.9826 764.99L0 779.414V781.444L16.0735 766.04Z" fill="#0C0C0C"/>
<path d="M41.7476 790.757L75.2765 758.408L182.846 654.919L216.375 622.64L249.903 590.29L272.959 568.094H270.85L248.813 589.24L215.284 621.589L181.755 653.868L107.787 725.078L74.1855 757.358L40.6566 789.707L0 828.848V830.948L41.7476 790.757Z" fill="#0C0C0C"/>
<path d="M61.0213 809.242L94.5503 776.963L202.047 673.474L235.648 641.125L269.177 608.846L306.197 573.276L311.507 568.094H309.179L305.034 572.155L197.465 675.645L163.936 707.924L56.4393 811.483L22.8376 843.762L14.2553 852.094H16.5827L61.0213 809.242Z" fill="#0C0C0C"/>
<path d="M0 769.121L43.2022 727.529L76.7311 695.25L150.699 624.04L184.3 591.691L208.811 568.094H206.629L183.209 590.641L149.608 622.99L75.6402 694.2L42.1112 726.479L0 767.02V769.121Z" fill="#0C0C0C"/>
<path d="M56.0028 739.853L89.6045 707.574L197.101 604.084L230.63 571.735L234.485 568.094H232.303L229.612 570.755L196.01 603.034L162.481 635.313L88.5135 706.523L54.9846 738.872L0 791.737V793.838L22.4739 772.202L56.0028 739.853Z" fill="#0C0C0C"/>
<path d="M62.4759 746.084L169.972 642.525L203.501 610.246L247.285 568.094H245.176L236.012 576.917L202.483 609.196L168.881 641.545L61.3849 745.034L27.8559 777.313L0 804.131V806.161L28.8742 778.363L62.4759 746.084Z" fill="#0C0C0C"/>
<path d="M0 841.171V843.272L48.1479 796.919L81.7496 764.57L115.279 732.29L189.246 661.08L222.775 628.801L256.377 596.452L285.833 568.094H283.651L221.684 627.751L114.188 731.24L80.6586 763.589L0 841.171Z" fill="#0C0C0C"/>
</g>
<defs>
<clipPath id="clip0">
<rect width="99" height="585.138" fill="white" transform="translate(0 0.0942383)"/>
</clipPath>
</defs>
</svg>
